<?xml version="1.0" encoding="UTF-8" standalone="no"?>
<!-- Created with Inkscape (http://www.inkscape.org/) -->

<svg
   version="1.1"
   id="svg1"
   width="312.40668"
   height="339.26132"
   viewBox="0 0 312.40668 339.26132"
   xmlns="http://www.w3.org/2000/svg"
   xmlns:svg="http://www.w3.org/2000/svg">
  <defs
     id="defs1" />
  <g
     id="g1">
    <path
       id="path1"
       d="m 3.0179648,-3.1469102 h 1.6933594 c 1.4121094,0 2.8007813,-1.0371093 2.8007813,-2.1503906 0,-0.7675781 -0.65625,-1.5058594 -1.9628907,-1.5058594 H 2.3206992 c -0.1875,0 -0.2988281,0 -0.2988281,0.1875 0,0.1230469 0.087891,0.1230469 0.2871094,0.1230469 0.1289062,0 0.3105468,0.00586 0.4277343,0.017578 0.1640625,0.017578 0.2226563,0.052734 0.2226563,0.1582032 0,0.041016 -0.011719,0.070312 -0.041016,0.1933593 L 1.582418,-0.77972266 c -0.099609,0.39257813 -0.1171875,0.46875 -0.90234378,0.46875 -0.16992188,0 -0.28125,0 -0.28125,0.19335938 0,0.11718749875 0.1171875,0.11718749875 0.14648437,0.11718749875 0.28125,0 0.99023441,-0.0292968788 1.26562501,-0.0292968788 0.2109375,0 0.4277344,0.01171875 0.6386719,0.01171875 0.2226562,0 0.4394531,0.0175781288 0.6503906,0.0175781288 0.070312,0 0.1992187,0 0.1992187,-0.19921874875 0,-0.11132813 -0.09375,-0.11132813 -0.28125,-0.11132813 -0.3691406,0 -0.6445312,0 -0.6445312,-0.17578125 0,-0.0585938 0.017578,-0.11132812 0.029297,-0.16992187 z m 0.7148438,-2.9707031 c 0.09375,-0.3457031 0.1113281,-0.375 0.5390625,-0.375 h 0.9550781 c 0.8320313,0 1.359375,0.2695313 1.359375,0.9550781 0,0.3867188 -0.1992187,1.2421875 -0.5917969,1.6054688 -0.4980468,0.4453125 -1.0957031,0.5273437 -1.5292968,0.5273437 h -1.40625 z m 0,0"
       style="fill:#000000;fill-opacity:1;fill-rule:nonzero;stroke:none"
       aria-label="P"
       transform="matrix(2.6666667,0,0,2.6666667,118.456,154.77067)" />
    <path
       id="path2"
       d="m 1.5943242,-0.77972266 c -0.099609,0.39257813 -0.1171875,0.46875 -0.90820311,0.46875 -0.16992187,0 -0.26953125,0 -0.26953125,0.19921875 0,0.11132812875 0.09375,0.11132812875 0.26953125,0.11132812875 H 4.2427617 c 1.5761719,0 2.7480469,-1.17773441875 2.7480469,-2.15039061875 0,-0.7207031 -0.5742188,-1.2949219 -1.5410156,-1.40625 1.0371093,-0.1875 2.0800781,-0.9257813 2.0800781,-1.8691406 0,-0.7382813 -0.65625,-1.3769532 -1.8515625,-1.3769532 H 2.3326055 c -0.1933594,0 -0.2929688,0 -0.2929688,0.1992188 0,0.1113281 0.09375,0.1113281 0.28125,0.1113281 0.017578,0 0.2109375,0 0.3808594,0.017578 0.1757812,0.017578 0.2695312,0.029297 0.2695312,0.1582032 0,0.041016 -0.011719,0.070312 -0.041016,0.1933593 z M 3.1001836,-3.644957 3.715418,-6.1176133 c 0.087891,-0.3457031 0.1113281,-0.375 0.5390625,-0.375 h 1.2832031 c 0.8789062,0 1.0839844,0.5859375 1.0839844,1.0253906 0,0.8730469 -0.8554688,1.8222657 -2.0683594,1.8222657 z m -0.4511719,3.33398434 c -0.140625,0 -0.1582031,0 -0.2167969,-0.005859 -0.099609,-0.0117188 -0.1289062,-0.0234375 -0.1289062,-0.0996094 0,-0.0292969 0,-0.0527344 0.046875,-0.22851562 L 3.0357305,-3.4281602 h 1.8867187 c 0.9550781,0 1.1425781,0.7382813 1.1425781,1.1660157 0,0.984375 -0.8847656,1.95117184 -2.0625,1.95117184 z m 0,0"
       style="fill:#000000;fill-opacity:1;fill-rule:nonzero;stroke:none"
       aria-label="B"
       transform="matrix(2.6666667,0,0,2.6666667,269.268,154.77067)" />
    <path
       id="path3"
       d="m 1.7814453,-1.1431211 c -0.3984375,0.66210938 -0.78515624,0.80273438 -1.22460936,0.83203126 -0.1171875,0.0117188 -0.2109375,0.0117188 -0.2109375,0.19921875 0,0.06445312 0.0527344,0.11132812125 0.13476562,0.11132812125 0.26367188,0 0.57421874,-0.0292968712 0.85546874,-0.0292968712 0.328125,0 0.6738281,0.0292968712 0.9960938,0.0292968712 0.058594,0 0.1875,0 0.1875,-0.18750000125 0,-0.11132812 -0.087891,-0.12304687 -0.1582032,-0.12304687 -0.2285156,-0.0175781 -0.46875,-0.0996094 -0.46875,-0.34570313 0,-0.12304687 0.058594,-0.22851562 0.140625,-0.36914063 l 0.7558594,-1.2773437 h 2.5019531 c 0.017578,0.2109375 0.1582032,1.56445308 0.1582032,1.66406246 0,0.29882812 -0.5214844,0.328125 -0.7207032,0.328125 -0.1347656,0 -0.234375,0 -0.234375,0.19921875 0,0.11132812125 0.1171875,0.11132812125 0.1347657,0.11132812125 0.4101562,0 0.8378906,-0.0292968712 1.2480468,-0.0292968712 0.2460938,0 0.8789063,0.0292968712 1.125,0.0292968712 0.058594,0 0.1816407,0 0.1816407,-0.19921875125 0,-0.11132812 -0.099609,-0.11132812 -0.2285157,-0.11132812 -0.6210937,0 -0.6210937,-0.0703125 -0.6503906,-0.35742188 L 5.6955078,-6.891168 c -0.017578,-0.1992187 -0.017578,-0.2402343 -0.1875,-0.2402343 -0.1582031,0 -0.1992187,0.070312 -0.2578125,0.1699218 z m 1.1953125,-1.4648437 1.9628906,-3.2871094 0.3222657,3.2871094 z m 0,0"
       style="fill:#000000;fill-opacity:1;fill-rule:nonzero;stroke:none"
       aria-label="A"
       transform="matrix(2.6666667,0,0,2.6666667,118.86667,305.95067)" />
    <path
       id="path4"
       d="m 7.5702148,-6.9204648 c 0,-0.035156 -0.017578,-0.099609 -0.1113281,-0.099609 -0.029297,0 -0.041016,0.00586 -0.1464844,0.1171875 l -0.6972656,0.7675781 c -0.09375,-0.140625 -0.5507812,-0.8847656 -1.6523437,-0.8847656 -2.2265625,0 -4.46484378,2.1972656 -4.46484378,4.5117187 0,1.64062503 1.17773438,2.72460941 2.70117188,2.72460941 0.8671875,0 1.6230469,-0.3984375 2.1503906,-0.85546875 C 6.275293,-1.453668 6.4452148,-2.3618711 6.4452148,-2.391168 c 0,-0.099609 -0.099609,-0.099609 -0.1230468,-0.099609 -0.058594,0 -0.1054688,0.017578 -0.1289063,0.099609 -0.087891,0.2871094 -0.3164062,0.9960938 -1.0019531,1.57617191 -0.6914063,0.55664062 -1.3183594,0.7265625 -1.8339844,0.7265625 -0.8964844,0 -1.9511719,-0.52148438 -1.9511719,-2.07421871 0,-0.5683594 0.2050782,-2.1796875 1.2011719,-3.3457032 0.609375,-0.7089843 1.546875,-1.2070312 2.4316406,-1.2070312 1.0195313,0 1.6054688,0.7675781 1.6054688,1.921875 0,0.3984375 -0.029297,0.4101562 -0.029297,0.5097656 0,0.099609 0.1054688,0.099609 0.1464844,0.099609 0.1289062,0 0.1289062,-0.017578 0.1816406,-0.1992188 z m 0,0"
       style="fill:#000000;fill-opacity:1;fill-rule:nonzero;stroke:none"
       aria-label="C"
       transform="matrix(2.6666667,0,0,2.6666667,269.56667,305.95067)" />
    <g
       id="g4"
       aria-label="ˆ&#10;P"
       transform="matrix(2.6666667,0,0,2.6666667,18.576,45.732)">
      <path
         id="path5"
         d="m 2.4895664,-6.9146367 -1.3359375,1.3535156 0.1816406,0.1816406 1.1542969,-1.0136718 1.1425781,1.0136718 0.1816407,-0.1816406 z m 0,0"
         style="fill:#000000;fill-opacity:1;fill-rule:nonzero;stroke:none" />
      <path
         id="path6"
         d="M 0.78741797,-0.62752734 H 2.4807773 c 1.4121094,0 2.8007813,-1.03710936 2.8007813,-2.15039066 0,-0.7675781 -0.65625,-1.5058593 -1.9628906,-1.5058593 H 0.09015234 c -0.1875,0 -0.29882812,0 -0.29882812,0.1875 0,0.1230468 0.0878906,0.1230468 0.28710937,0.1230468 0.12890625,0 0.31054688,0.00586 0.42773438,0.017578 0.1640625,0.017578 0.22265625,0.052734 0.22265625,0.1582031 0,0.041016 -0.0117188,0.070312 -0.0410156,0.1933594 l -1.3359375,5.34375 c -0.0996094,0.3925781 -0.1171875,0.46875 -0.90234382,0.46875 -0.1699218,0 -0.28125,0 -0.28125,0.1933593 0,0.1171875 0.1171875,0.1171875 0.1464844,0.1171875 0.28125,0 0.99023442,-0.029297 1.26562505,-0.029297 0.2109375,0 0.42773437,0.011719 0.63867187,0.011719 0.22265625,0 0.43945313,0.017578 0.65039063,0.017578 0.0703125,0 0.19921875,0 0.19921875,-0.1992187 0,-0.1113281 -0.09375,-0.1113281 -0.28125,-0.1113281 -0.36914063,0 -0.64453125,0 -0.64453125,-0.1757813 0,-0.058594 0.0175781,-0.1113281 0.0292969,-0.1699219 z M 1.5022617,-3.5982305 c 0.09375,-0.3457031 0.1113281,-0.375 0.5390625,-0.375 h 0.9550781 c 0.8320313,0 1.359375,0.2695313 1.359375,0.9550782 0,0.3867187 -0.1992187,1.2421875 -0.5917968,1.6054687 -0.4980469,0.44531251 -1.0957032,0.52734376 -1.5292969,0.52734376 H 0.82843359 Z m 0,0"
         style="fill:#000000;fill-opacity:1;fill-rule:nonzero;stroke:none" />
    </g>
    <path
       id="path7"
       d="M 15.21808,0 H 97.18507"
       style="fill:none;stroke:#000000;stroke-width:0.79701;stroke-linecap:butt;stroke-linejoin:miter;stroke-miterlimit:10;stroke-dasharray:none;stroke-opacity:1"
       transform="matrix(1.3333333,0,0,-1.3333333,128.82933,145.69333)" />
    <path
       id="path8"
       d="M -1.55415,2.0722 C -1.42464,1.29512 0,0.1295 0.38852,0 0,-0.1295 -1.42464,-1.29512 -1.55415,-2.0722"
       style="fill:none;stroke:#000000;stroke-width:0.6376;stroke-linecap:round;stroke-linejoin:round;stroke-miterlimit:10;stroke-dasharray:none;stroke-opacity:1"
       transform="matrix(1.3333333,0,0,-1.3333333,258.40943,145.69333)" />
    <path
       id="path9"
       d="m 3.656043,-3.9843594 h 0.8554687 c 0.1992188,0 0.2988281,0 0.2988281,-0.1992187 0,-0.1113281 -0.099609,-0.1113281 -0.2695312,-0.1113281 H 3.7146367 l 0.2109375,-1.1308594 c 0.041016,-0.2109375 0.1757813,-0.9199219 0.2402344,-1.0371094 0.087891,-0.1933594 0.2578125,-0.3398437 0.4628906,-0.3398437 0.041016,0 0.2988281,0 0.4921875,0.1816406 -0.4394531,0.035156 -0.5390625,0.3867187 -0.5390625,0.5332031 0,0.2285156 0.1816406,0.3515625 0.3691406,0.3515625 0.2578125,0 0.5449219,-0.2226562 0.5449219,-0.5976562 0,-0.4570313 -0.4570312,-0.6855469 -0.8671875,-0.6855469 -0.3339844,0 -0.9609375,0.1757812 -1.2597656,1.1601562 -0.064453,0.2109375 -0.09375,0.3105469 -0.3339844,1.5644532 H 2.3494023 c -0.1875,0 -0.2988281,0 -0.2988281,0.1933593 0,0.1171875 0.087891,0.1171875 0.28125,0.1171875 h 0.65625 l -0.75,3.93750003 C 2.062293,0.91407813 1.8923711,1.8222813 1.3767461,1.8222813 c -0.041016,0 -0.2929688,0 -0.48046876,-0.1816407 C 1.3533086,1.6113438 1.4411992,1.2539219 1.4411992,1.1074375 1.4411992,0.87892188 1.265418,0.755875 1.077918,0.755875 c -0.26367191,0 -0.55078128,0.22265625 -0.55078128,0.5976563 0,0.4511718 0.43945312,0.6855468 0.84960938,0.6855468 0.5449219,0 0.9433594,-0.5859375 1.125,-0.9609375 0.3164062,-0.63281247 0.5449219,-1.83398435 0.5566406,-1.90429685 z m 0,0"
       style="fill:#000000;fill-opacity:1;fill-rule:nonzero;stroke:none"
       aria-label="f"
       transform="matrix(2.6666667,0,0,2.6666667,196.30133,130.60933)" />
    <path
       id="path10"
       d="M 0,-14.246 V -98.43388"
       style="fill:none;stroke:#000000;stroke-width:0.79701;stroke-linecap:butt;stroke-linejoin:miter;stroke-miterlimit:10;stroke-dasharray:none;stroke-opacity:1"
       transform="matrix(1.3333333,0,0,-1.3333333,128.82933,145.69333)" />
    <path
       id="path11"
       d="M -1.55415,2.0722 C -1.42464,1.29512 0,0.1295 0.38852,0 0,-0.1295 -1.42464,-1.29512 -1.55415,-2.0722"
       style="fill:none;stroke:#000000;stroke-width:0.6376;stroke-linecap:round;stroke-linejoin:round;stroke-miterlimit:10;stroke-dasharray:none;stroke-opacity:1"
       transform="matrix(0,1.3333333,1.3333333,0,128.82933,276.93851)" />
    <path
       id="path12"
       d="m 4.692793,-3.7551562 c 0.00586,-0.058594 0.029297,-0.1113282 0.029297,-0.1757813 0,-0.1699219 -0.1230468,-0.2695312 -0.2929687,-0.2695312 -0.099609,0 -0.3632813,0.070312 -0.4042969,0.4277343 C 3.8431836,-4.141875 3.4974805,-4.3996875 3.099043,-4.3996875 c -1.1367188,0 -2.37304691,1.3945313 -2.37304691,2.8242188 0,0.99023433 0.60937501,1.576171825 1.32421871,1.576171825 0.5859375,0 1.0546875,-0.468749995 1.1542969,-0.580078125 l 0.011719,0.0117188 c -0.2109375,0.88476563 -0.328125,1.29492188 -0.328125,1.3125 -0.041016,0.09375 -0.3808594,1.0781251 -1.4355469,1.0781251 -0.1875,0 -0.51562501,-0.011719 -0.79687501,-0.099609 C 0.95451192,1.6354689 1.06584,1.3776568 1.06584,1.2077349 c 0,-0.1640625 -0.11132808,-0.35156257 -0.38085933,-0.35156257 -0.21679688,0 -0.5390625,0.18164067 -0.5390625,0.58007817 0,0.4042969 0.36914062,0.6035156 1.33007813,0.6035156 1.2421875,0 1.9570312,-0.7734375 2.109375,-1.37109377 z m -1.2949219,2.4785156 c -0.064453,0.2636719 -0.2929688,0.5097656 -0.5097656,0.6972656 -0.2109375,0.18164063 -0.515625,0.36328125 -0.8085938,0.36328125 -0.4980469,0 -0.6445312,-0.52148437 -0.6445312,-0.91992185 0,-0.4746094 0.2871093,-1.6523438 0.5566406,-2.1621094 0.2695312,-0.4863281 0.6972656,-0.8847656 1.1132812,-0.8847656 0.6621094,0 0.796875,0.8085937 0.796875,0.8554687 0,0.052734 -0.017578,0.1113282 -0.029297,0.1523438 z m 0,0"
       style="fill:#000000;fill-opacity:1;fill-rule:nonzero;stroke:none"
       aria-label="g"
       transform="matrix(2.6666667,0,0,2.6666667,105.28667,224.42)" />
    <path
       id="path13"
       d="M 14.91022,-113.38727 H 97.40854"
       style="fill:none;stroke:#000000;stroke-width:0.79701;stroke-linecap:butt;stroke-linejoin:miter;stroke-miterlimit:10;stroke-dasharray:none;stroke-opacity:1"
       transform="matrix(1.3333333,0,0,-1.3333333,128.82933,145.69333)" />
    <path
       id="path14"
       d="M -1.55415,2.0722 C -1.42464,1.29512 0,0.1295 0.38852,0 0,-0.1295 -1.42464,-1.29512 -1.55415,-2.0722"
       style="fill:none;stroke:#000000;stroke-width:0.6376;stroke-linecap:round;stroke-linejoin:round;stroke-miterlimit:10;stroke-dasharray:none;stroke-opacity:1"
       transform="matrix(1.3333333,0,0,-1.3333333,258.70739,296.87636)" />
    <path
       id="path15"
       d="m 3.6565352,-3.9840547 h 0.8554687 c 0.1992188,0 0.2988281,0 0.2988281,-0.1992187 0,-0.1113282 -0.099609,-0.1113282 -0.2695312,-0.1113282 H 3.7151289 l 0.2109375,-1.1308593 c 0.041016,-0.2109375 0.1757813,-0.9199219 0.2402344,-1.0371094 0.087891,-0.1933594 0.2578125,-0.3398438 0.4628906,-0.3398438 0.041016,0 0.2988281,0 0.4921875,0.1816407 -0.4394531,0.035156 -0.5390625,0.3867187 -0.5390625,0.5332031 0,0.2285156 0.1816406,0.3515625 0.3691406,0.3515625 0.2578125,0 0.5449219,-0.2226563 0.5449219,-0.5976563 0,-0.4570312 -0.4570312,-0.6855468 -0.8671875,-0.6855468 -0.3339844,0 -0.9609375,0.1757812 -1.2597656,1.1601562 -0.064453,0.2109375 -0.09375,0.3105469 -0.3339844,1.5644531 H 2.3498945 c -0.1875,0 -0.2988281,0 -0.2988281,0.1933594 0,0.1171875 0.087891,0.1171875 0.28125,0.1171875 h 0.65625 l -0.75,3.93750001 C 2.0627852,0.91438281 1.8928633,1.8225859 1.3772383,1.8225859 c -0.041016,0 -0.2929688,0 -0.48046877,-0.1816406 C 1.3538008,1.6116484 1.4416914,1.2542266 1.4416914,1.1077422 c 0,-0.22851564 -0.1757812,-0.35156251 -0.3632812,-0.35156251 -0.26367192,0 -0.55078129,0.22265625 -0.55078129,0.59765621 0,0.4511719 0.43945312,0.6855469 0.84960939,0.6855469 0.5449219,0 0.9433594,-0.5859375 1.125,-0.9609375 0.3164062,-0.63281249 0.5449219,-1.83398436 0.5566406,-1.90429686 z m 0,0"
       style="fill:#000000;fill-opacity:1;fill-rule:nonzero;stroke:none"
       aria-label="f"
       transform="matrix(2.6666667,0,0,2.6666667,196.24533,325.24133)" />
    <path
       id="path16"
       d="M 113.38727,-14.246 V -98.43388"
       style="fill:none;stroke:#000000;stroke-width:0.79701;stroke-linecap:butt;stroke-linejoin:miter;stroke-miterlimit:10;stroke-dasharray:none;stroke-opacity:1"
       transform="matrix(1.3333333,0,0,-1.3333333,128.82933,145.69333)" />
    <path
       id="path17"
       d="M -1.55415,2.0722 C -1.42464,1.29512 0,0.1295 0.38852,0 0,-0.1295 -1.42464,-1.29512 -1.55415,-2.0722"
       style="fill:none;stroke:#000000;stroke-width:0.6376;stroke-linecap:round;stroke-linejoin:round;stroke-miterlimit:10;stroke-dasharray:none;stroke-opacity:1"
       transform="matrix(0,1.3333333,1.3333333,0,280.01236,276.93851)" />
    <path
       id="path18"
       d="m 4.6939922,-3.7551562 c 0.00586,-0.058594 0.029297,-0.1113282 0.029297,-0.1757813 0,-0.1699219 -0.1230469,-0.2695312 -0.2929688,-0.2695312 -0.099609,0 -0.3632812,0.070312 -0.4042969,0.4277343 -0.1816406,-0.3691406 -0.5273437,-0.6269531 -0.9257812,-0.6269531 -1.1367188,0 -2.37304689,1.3945313 -2.37304689,2.8242188 0,0.99023433 0.60937499,1.576171825 1.32421879,1.576171825 0.5859375,0 1.0546875,-0.468749995 1.1542968,-0.580078125 l 0.011719,0.0117188 c -0.2109375,0.88476563 -0.328125,1.29492188 -0.328125,1.3125 -0.041016,0.09375 -0.3808594,1.0781251 -1.4355469,1.0781251 -0.1875,0 -0.51562499,-0.011719 -0.79687499,-0.099609 0.29882813,-0.087891 0.41015629,-0.3457031 0.41015629,-0.515625 0,-0.1640625 -0.11132816,-0.35156257 -0.38085941,-0.35156257 -0.21679688,0 -0.5390625,0.18164067 -0.5390625,0.58007817 0,0.4042969 0.36914062,0.6035156 1.33007811,0.6035156 1.2421875,0 1.9570313,-0.7734375 2.109375,-1.37109377 z m -1.2949219,2.4785156 c -0.064453,0.2636719 -0.2929687,0.5097656 -0.5097656,0.6972656 -0.2109375,0.18164063 -0.515625,0.36328125 -0.8085938,0.36328125 -0.4980468,0 -0.6445312,-0.52148437 -0.6445312,-0.91992185 0,-0.4746094 0.2871094,-1.6523438 0.5566406,-2.1621094 0.2695313,-0.4863281 0.6972656,-0.8847656 1.1132813,-0.8847656 0.6621093,0 0.796875,0.8085937 0.796875,0.8554687 0,0.052734 -0.017578,0.1113282 -0.029297,0.1523438 z m 0,0"
       style="fill:#000000;fill-opacity:1;fill-rule:nonzero;stroke:none"
       aria-label="g"
       transform="matrix(2.6666667,0,0,2.6666667,289.928,224.42)" />
    <path
       id="path19"
       d="m -81.62817,62.49567 c -9.53145,-68.5701 12.10035,-121.86528 66.15992,-163.97034"
       style="fill:none;stroke:#000000;stroke-width:0.79701;stroke-linecap:butt;stroke-linejoin:miter;stroke-miterlimit:10;stroke-dasharray:none;stroke-opacity:1"
       transform="matrix(1.3333333,0,0,-1.3333333,128.82933,145.69333)" />
    <path
       id="path20"
       d="M -1.55415,2.0722 C -1.42464,1.29512 0,0.1295 0.38852,0 0,-0.1295 -1.42464,-1.29512 -1.55415,-2.0722"
       style="fill:none;stroke:#000000;stroke-width:0.6376;stroke-linecap:round;stroke-linejoin:round;stroke-miterlimit:10;stroke-dasharray:none;stroke-opacity:1"
       transform="matrix(1.05188,0.81928,0.81928,-1.05188,108.205,280.99289)" />
    <g
       id="g20"
       aria-label="ˆg"
       transform="matrix(2.6666667,0,0,2.6666667,9.764,213.35067)">
      <path
         id="path21"
         d="m 2.4908438,-6.9137266 -1.3359375,1.3535157 0.1816406,0.1816406 1.1542969,-1.0136719 1.1425781,1.0136719 0.1816406,-0.1816406 z m 0,0"
         style="fill:#000000;fill-opacity:1;fill-rule:nonzero;stroke:none" />
      <path
         id="path22"
         d="m 4.3526602,-3.7555234 c 0.00586,-0.058594 0.029297,-0.1113282 0.029297,-0.1757813 0,-0.1699219 -0.1230468,-0.2695312 -0.2929687,-0.2695312 -0.099609,0 -0.3632813,0.070312 -0.4042969,0.4277343 -0.1816406,-0.3691406 -0.5273437,-0.6269531 -0.9257812,-0.6269531 -1.1367188,0 -2.37304692,1.3945313 -2.37304692,2.8242188 0,0.99023434 0.609375,1.5761718375 1.32421872,1.5761718375 0.5859375,0 1.0546875,-0.4687499975 1.1542969,-0.5800781275 l 0.011719,0.0117188 c -0.2109375,0.88476563 -0.328125,1.29492188 -0.328125,1.3125 -0.041016,0.09375 -0.3808594,1.07812509 -1.4355469,1.07812509 -0.18750002,0 -0.51562502,-0.011719 -0.79687502,-0.099609 0.29882813,-0.087891 0.41015625,-0.345703 0.41015625,-0.5156249 0,-0.1640625 -0.11132812,-0.35156256 -0.38085937,-0.35156256 -0.21679688,0 -0.5390625,0.18164066 -0.5390625,0.58007816 0,0.4042969 0.36914062,0.6035156 1.33007814,0.6035156 1.2421875,0 1.9570312,-0.7734375 2.109375,-1.37109376 z m -1.2949219,2.4785156 c -0.064453,0.2636719 -0.2929688,0.50976561 -0.5097656,0.69726561 -0.2109375,0.18164063 -0.515625,0.36328125 -0.8085938,0.36328125 -0.4980469,0 -0.6445312,-0.52148437 -0.6445312,-0.91992186 0,-0.4746094 0.2871093,-1.6523438 0.5566406,-2.1621094 0.2695312,-0.4863281 0.6972656,-0.8847656 1.1132812,-0.8847656 0.6621094,0 0.796875,0.8085937 0.796875,0.8554687 0,0.052734 -0.017578,0.1113282 -0.029297,0.1523438 z m 0,0"
         style="fill:#000000;fill-opacity:1;fill-rule:nonzero;stroke:none" />
    </g>
    <path
       id="path23"
       d="M -64.15265,81.4065 C 5.30098,91.21974 59.19513,69.48793 101.98473,14.80307"
       style="fill:none;stroke:#000000;stroke-width:0.79701;stroke-linecap:butt;stroke-linejoin:miter;stroke-miterlimit:10;stroke-dasharray:none;stroke-opacity:1"
       transform="matrix(1.3333333,0,0,-1.3333333,128.82933,145.69333)" />
    <path
       id="path24"
       d="M -1.55415,2.0722 C -1.42464,1.29512 0,0.1295 0.38852,0 0,-0.1295 -1.42464,-1.29512 -1.55415,-2.0722"
       style="fill:none;stroke:#000000;stroke-width:0.6376;stroke-linecap:round;stroke-linejoin:round;stroke-miterlimit:10;stroke-dasharray:none;stroke-opacity:1"
       transform="matrix(0.82164,1.0500533,1.0500533,-0.82164,264.80895,125.95591)" />
    <g
       id="g24"
       aria-label="ˆ&#10;f"
       transform="matrix(2.6666667,0,0,2.6666667,183.092,27.304)">
      <path
         id="path25"
         d="m 2.4908906,-6.9138047 -1.3359375,1.3535156 0.1816407,0.1816407 1.1542968,-1.0136719 1.1425782,1.0136719 0.1816406,-0.1816407 z m 0,0"
         style="fill:#000000;fill-opacity:1;fill-rule:nonzero;stroke:none" />
      <path
         id="path26"
         d="m 1.5109102,-1.3547227 h 0.8554687 c 0.1992188,0 0.2988281,0 0.2988281,-0.1992187 0,-0.1113281 -0.099609,-0.1113281 -0.2695312,-0.1113281 H 1.5695039 l 0.2109375,-1.1308594 c 0.041016,-0.2109375 0.1757813,-0.9199219 0.2402344,-1.0371094 0.087891,-0.1933594 0.2578125,-0.3398437 0.4628906,-0.3398437 0.041016,0 0.2988281,0 0.4921875,0.1816406 -0.4394531,0.035156 -0.5390625,0.3867187 -0.5390625,0.5332031 0,0.2285156 0.1816406,0.3515625 0.3691406,0.3515625 0.2578125,0 0.5449219,-0.2226562 0.5449219,-0.5976562 0,-0.4570313 -0.4570312,-0.6855469 -0.8671875,-0.6855469 -0.3339844,0 -0.9609375,0.1757812 -1.2597656,1.1601562 -0.064453,0.2109375 -0.09375,0.3105469 -0.33398439,1.5644532 H 0.20426953 c -0.1875,0 -0.29882812,0 -0.29882812,0.1933593 0,0.1171875 0.08789062,0.1171875 0.28125,0.1171875 h 0.65625 l -0.75,3.9375 c -0.17578125,0.9609375 -0.34570313,1.8691407 -0.86132813,1.8691407 -0.0410156,0 -0.29296878,0 -0.48046878,-0.1816407 0.45703128,-0.029297 0.54492191,-0.3867187 0.54492191,-0.5332031 0,-0.2285156 -0.17578125,-0.3515625 -0.36328121,-0.3515625 -0.2636719,0 -0.5507813,0.2226563 -0.5507813,0.5976563 0,0.4511718 0.4394531,0.6855468 0.84960938,0.6855468 0.54492188,0 0.94335938,-0.5859375 1.125,-0.9609375 C 0.67301953,3.0749648 0.90153516,1.873793 0.91325391,1.8034805 Z m 0,0"
         style="fill:#000000;fill-opacity:1;fill-rule:nonzero;stroke:none" />
    </g>
    <path
       id="path27"
       d="M -64.15265,64.15382 -14.744,14.74617"
       style="fill:none;stroke:#000000;stroke-width:0.79701;stroke-linecap:butt;stroke-linejoin:miter;stroke-miterlimit:10;stroke-dasharray:2.98883, 2.98883;stroke-dashoffset:0;stroke-opacity:1"
       transform="matrix(1.3333333,0,0,-1.3333333,128.82933,145.69333)" />
    <path
       id="path28"
       d="M -1.55415,2.0722 C -1.42464,1.29512 0,0.1295 0.38852,0 0,-0.1295 -1.42464,-1.29512 -1.55415,-2.0722"
       style="fill:none;stroke:#000000;stroke-width:0.6376;stroke-linecap:round;stroke-linejoin:round;stroke-miterlimit:10;stroke-dasharray:none;stroke-opacity:1"
       transform="matrix(0.9428,0.94278667,0.94278667,-0.9428,109.17064,126.03175)" />
    <path
       id="path29"
       d="m 2.8600156,-6.8033047 c 0,-0.011719 0,-0.1113281 -0.1289062,-0.1113281 -0.2285156,0 -0.9550781,0.082031 -1.21875,0.099609 -0.076172,0.011719 -0.1875,0.023437 -0.1875,0.1992187 0,0.1230469 0.087891,0.1230469 0.2402344,0.1230469 0.4746093,0 0.4980468,0.070312 0.4980468,0.1699219 l -0.029297,0.1992187 -1.44726567,5.73632814 c -0.0410156,0.140625 -0.0410156,0.15820312 -0.0410156,0.21679687 0,0.22851563 0.19921875,0.28125 0.29296875,0.28125 0.12890625,0 0.27539062,-0.09375 0.33984372,-0.2109375 0.046875,-0.0878906 0.4980469,-1.93359371 0.5566406,-2.17968751 0.3398438,0.029297 1.1542969,0.1875 1.1542969,0.84375 0,0.070312 0,0.1113281 -0.029297,0.2109375 C 2.8365781,-1.1079922 2.819,-0.98494531 2.819,-0.87947656 c 0,0.59179687 0.3984375,0.99023437 0.9140625,0.99023437 0.2988281,0 0.5683594,-0.15820312 0.7910156,-0.52734375 C 4.7701719,-0.85603906 4.8815,-1.4068203 4.8815,-1.4243984 c 0,-0.099609 -0.087891,-0.099609 -0.1171875,-0.099609 -0.099609,0 -0.1113281,0.041016 -0.140625,0.1816406 -0.1992187,0.72656251 -0.4277344,1.23046876 -0.8671875,1.23046876 -0.1875,0 -0.3222656,-0.10546875 -0.3222656,-0.46875 0,-0.1640625 0.041016,-0.3984375 0.082031,-0.55664066 0.041016,-0.1699218 0.041016,-0.2050781 0.041016,-0.3046875 0,-0.6503906 -0.6269532,-0.9375 -1.4765625,-1.0488281 0.3105468,-0.1816406 0.6269531,-0.4980469 0.8554687,-0.7382812 0.4804688,-0.5273438 0.9375,-0.9550782 1.4296875,-0.9550782 0.058594,0 0.064453,0 0.087891,0.011719 0.1171875,0.017578 0.1289063,0.017578 0.2109375,0.076172 0.017578,0.011719 0.017578,0.023437 0.035156,0.041016 C 4.22525,-4.0259609 4.1315,-3.6333828 4.1315,-3.5161953 c 0,0.1582031 0.1113281,0.3457031 0.3808594,0.3457031 0.2578125,0 0.5507812,-0.2167969 0.5507812,-0.6035156 0,-0.2988281 -0.234375,-0.6269531 -0.6796875,-0.6269531 -0.28125,0 -0.7382812,0.076172 -1.453125,0.8730468 -0.3398437,0.3808594 -0.7265625,0.7792969 -1.1074218,0.9257813 z m 0,0"
       style="fill:#000000;fill-opacity:1;fill-rule:nonzero;stroke:none"
       aria-label="k"
       transform="matrix(2.6666667,0,0,2.6666667,86.482667,83.509333)" />
  </g>
</svg>
