<?xml version="1.0" encoding="UTF-8"?>
<svg xmlns="http://www.w3.org/2000/svg" xmlns:xlink="http://www.w3.org/1999/xlink" width="504" height="360" viewBox="0 0 504 360">
<rect x="-50.4" y="-36" width="604.8" height="432" fill="rgb(100%, 100%, 100%)" fill-opacity="1"/>
<path fill="none" stroke-width="1.707165" stroke-linecap="butt" stroke-linejoin="round" stroke="rgb(74.509804%, 74.509804%, 74.509804%)" stroke-opacity="1" stroke-miterlimit="10" d="M 260.269531 211.050781 L 227.136719 204.863281 "/>
<path fill="none" stroke-width="1.707165" stroke-linecap="butt" stroke-linejoin="round" stroke="rgb(74.509804%, 74.509804%, 74.509804%)" stroke-opacity="1" stroke-miterlimit="10" d="M 218.578125 219.109375 L 227.136719 204.863281 "/>
<path fill="none" stroke-width="1.707165" stroke-linecap="butt" stroke-linejoin="round" stroke="rgb(74.509804%, 74.509804%, 74.509804%)" stroke-opacity="1" stroke-miterlimit="10" d="M 262.023438 216.234375 L 227.136719 204.863281 "/>
<path fill="none" stroke-width="1.707165" stroke-linecap="butt" stroke-linejoin="round" stroke="rgb(74.509804%, 74.509804%, 74.509804%)" stroke-opacity="1" stroke-miterlimit="10" d="M 260.515625 221.902344 L 227.136719 204.863281 "/>
<path fill="none" stroke-width="1.707165" stroke-linecap="butt" stroke-linejoin="round" stroke="rgb(74.509804%, 74.509804%, 74.509804%)" stroke-opacity="1" stroke-miterlimit="10" d="M 238.011719 185.796875 L 227.136719 204.863281 "/>
<path fill="none" stroke-width="1.707165" stroke-linecap="butt" stroke-linejoin="round" stroke="rgb(74.509804%, 74.509804%, 74.509804%)" stroke-opacity="1" stroke-miterlimit="10" d="M 186.734375 174.644531 L 227.136719 204.863281 "/>
<path fill="none" stroke-width="1.707165" stroke-linecap="butt" stroke-linejoin="round" stroke="rgb(74.509804%, 74.509804%, 74.509804%)" stroke-opacity="1" stroke-miterlimit="10" d="M 202.773438 178.835938 L 227.136719 204.863281 "/>
<path fill="none" stroke-width="1.707165" stroke-linecap="butt" stroke-linejoin="round" stroke="rgb(74.509804%, 74.509804%, 74.509804%)" stroke-opacity="1" stroke-miterlimit="10" d="M 219.402344 216.132812 L 227.136719 204.863281 "/>
<path fill="none" stroke-width="1.707165" stroke-linecap="butt" stroke-linejoin="round" stroke="rgb(74.509804%, 74.509804%, 74.509804%)" stroke-opacity="1" stroke-miterlimit="10" d="M 226.984375 172.378906 L 227.136719 204.863281 "/>
<path fill="none" stroke-width="1.707165" stroke-linecap="butt" stroke-linejoin="round" stroke="rgb(74.509804%, 74.509804%, 74.509804%)" stroke-opacity="1" stroke-miterlimit="10" d="M 290.222656 212.195312 L 227.136719 204.863281 "/>
<path fill="none" stroke-width="1.707165" stroke-linecap="butt" stroke-linejoin="round" stroke="rgb(74.509804%, 74.509804%, 74.509804%)" stroke-opacity="1" stroke-miterlimit="10" d="M 247.167969 158.746094 L 227.136719 204.863281 "/>
<path fill="none" stroke-width="1.707165" stroke-linecap="butt" stroke-linejoin="round" stroke="rgb(74.509804%, 74.509804%, 74.509804%)" stroke-opacity="1" stroke-miterlimit="10" d="M 206.171875 190.152344 L 227.136719 204.863281 "/>
<path fill="none" stroke-width="1.707165" stroke-linecap="butt" stroke-linejoin="round" stroke="rgb(74.509804%, 74.509804%, 74.509804%)" stroke-opacity="1" stroke-miterlimit="10" d="M 197.027344 216.742188 L 227.136719 204.863281 "/>
<path fill="none" stroke-width="1.707165" stroke-linecap="butt" stroke-linejoin="round" stroke="rgb(74.509804%, 74.509804%, 74.509804%)" stroke-opacity="1" stroke-miterlimit="10" d="M 219.539062 226.695312 L 227.136719 204.863281 "/>
<path fill="none" stroke-width="1.707165" stroke-linecap="butt" stroke-linejoin="round" stroke="rgb(74.509804%, 74.509804%, 74.509804%)" stroke-opacity="1" stroke-miterlimit="10" d="M 219.285156 235.46875 L 227.136719 204.863281 "/>
<path fill="none" stroke-width="1.707165" stroke-linecap="butt" stroke-linejoin="round" stroke="rgb(74.509804%, 74.509804%, 74.509804%)" stroke-opacity="1" stroke-miterlimit="10" d="M 216.339844 232.820312 L 227.136719 204.863281 "/>
<path fill="none" stroke-width="1.707165" stroke-linecap="butt" stroke-linejoin="round" stroke="rgb(74.509804%, 74.509804%, 74.509804%)" stroke-opacity="1" stroke-miterlimit="10" d="M 233.753906 245.890625 L 227.136719 204.863281 "/>
<path fill="none" stroke-width="1.707165" stroke-linecap="butt" stroke-linejoin="round" stroke="rgb(74.509804%, 74.509804%, 74.509804%)" stroke-opacity="1" stroke-miterlimit="10" d="M 203.734375 174.523438 L 227.136719 204.863281 "/>
<path fill="none" stroke-width="1.707165" stroke-linecap="butt" stroke-linejoin="round" stroke="rgb(74.509804%, 74.509804%, 74.509804%)" stroke-opacity="1" stroke-miterlimit="10" d="M 238.566406 183.035156 L 227.136719 204.863281 "/>
<path fill="none" stroke-width="1.707165" stroke-linecap="butt" stroke-linejoin="round" stroke="rgb(74.509804%, 74.509804%, 74.509804%)" stroke-opacity="1" stroke-miterlimit="10" d="M 194.667969 210.828125 L 227.136719 204.863281 "/>
<path fill="none" stroke-width="1.707165" stroke-linecap="butt" stroke-linejoin="round" stroke="rgb(74.509804%, 74.509804%, 74.509804%)" stroke-opacity="1" stroke-miterlimit="10" d="M 221.25 197.882812 L 227.136719 204.863281 "/>
<path fill="none" stroke-width="1.707165" stroke-linecap="butt" stroke-linejoin="round" stroke="rgb(74.509804%, 74.509804%, 74.509804%)" stroke-opacity="1" stroke-miterlimit="10" d="M 237.035156 214.746094 L 227.136719 204.863281 "/>
<path fill="none" stroke-width="1.707165" stroke-linecap="butt" stroke-linejoin="round" stroke="rgb(74.509804%, 74.509804%, 74.509804%)" stroke-opacity="1" stroke-miterlimit="10" d="M 230.632812 140.816406 L 227.136719 204.863281 "/>
<path fill="none" stroke-width="1.707165" stroke-linecap="butt" stroke-linejoin="round" stroke="rgb(74.509804%, 74.509804%, 74.509804%)" stroke-opacity="1" stroke-miterlimit="10" d="M 248.234375 225.730469 L 227.136719 204.863281 "/>
<path fill="none" stroke-width="1.707165" stroke-linecap="butt" stroke-linejoin="round" stroke="rgb(74.509804%, 74.509804%, 74.509804%)" stroke-opacity="1" stroke-miterlimit="10" d="M 225.636719 206.304688 L 227.136719 204.863281 "/>
<path fill="none" stroke-width="1.707165" stroke-linecap="butt" stroke-linejoin="round" stroke="rgb(74.509804%, 74.509804%, 74.509804%)" stroke-opacity="1" stroke-miterlimit="10" d="M 240.347656 198.300781 L 227.136719 204.863281 "/>
<path fill="none" stroke-width="1.707165" stroke-linecap="butt" stroke-linejoin="round" stroke="rgb(74.509804%, 74.509804%, 74.509804%)" stroke-opacity="1" stroke-miterlimit="10" d="M 255.621094 188.644531 L 227.136719 204.863281 "/>
<path fill="none" stroke-width="1.707165" stroke-linecap="butt" stroke-linejoin="round" stroke="rgb(74.509804%, 74.509804%, 74.509804%)" stroke-opacity="1" stroke-miterlimit="10" d="M 209.007812 209.394531 L 227.136719 204.863281 "/>
<path fill="none" stroke-width="1.707165" stroke-linecap="butt" stroke-linejoin="round" stroke="rgb(74.509804%, 74.509804%, 74.509804%)" stroke-opacity="1" stroke-miterlimit="10" d="M 193.433594 263.210938 L 227.136719 204.863281 "/>
<path fill="none" stroke-width="1.707165" stroke-linecap="butt" stroke-linejoin="round" stroke="rgb(74.509804%, 74.509804%, 74.509804%)" stroke-opacity="1" stroke-miterlimit="10" d="M 228.359375 238.015625 L 227.136719 204.863281 "/>
<path fill="none" stroke-width="1.707165" stroke-linecap="butt" stroke-linejoin="round" stroke="rgb(74.509804%, 74.509804%, 74.509804%)" stroke-opacity="1" stroke-miterlimit="10" d="M 341.484375 65.835938 L 332.074219 99.925781 "/>
<path fill="none" stroke-width="1.707165" stroke-linecap="butt" stroke-linejoin="round" stroke="rgb(74.509804%, 74.509804%, 74.509804%)" stroke-opacity="1" stroke-miterlimit="10" d="M 331.785156 122.835938 L 332.074219 99.925781 "/>
<path fill="none" stroke-width="1.707165" stroke-linecap="butt" stroke-linejoin="round" stroke="rgb(74.509804%, 74.509804%, 74.509804%)" stroke-opacity="1" stroke-miterlimit="10" d="M 307.398438 99.707031 L 332.074219 99.925781 "/>
<path fill="none" stroke-width="1.707165" stroke-linecap="butt" stroke-linejoin="round" stroke="rgb(74.509804%, 74.509804%, 74.509804%)" stroke-opacity="1" stroke-miterlimit="10" d="M 329.035156 123.035156 L 332.074219 99.925781 "/>
<path fill="none" stroke-width="1.707165" stroke-linecap="butt" stroke-linejoin="round" stroke="rgb(74.509804%, 74.509804%, 74.509804%)" stroke-opacity="1" stroke-miterlimit="10" d="M 310.695312 84.28125 L 332.074219 99.925781 "/>
<path fill="none" stroke-width="1.707165" stroke-linecap="butt" stroke-linejoin="round" stroke="rgb(74.509804%, 74.509804%, 74.509804%)" stroke-opacity="1" stroke-miterlimit="10" d="M 338.429688 96.785156 L 332.074219 99.925781 "/>
<path fill="none" stroke-width="1.707165" stroke-linecap="butt" stroke-linejoin="round" stroke="rgb(74.509804%, 74.509804%, 74.509804%)" stroke-opacity="1" stroke-miterlimit="10" d="M 294.6875 107.328125 L 332.074219 99.925781 "/>
<path fill="none" stroke-width="1.707165" stroke-linecap="butt" stroke-linejoin="round" stroke="rgb(74.509804%, 74.509804%, 74.509804%)" stroke-opacity="1" stroke-miterlimit="10" d="M 341.675781 61.726562 L 332.074219 99.925781 "/>
<path fill="none" stroke-width="1.707165" stroke-linecap="butt" stroke-linejoin="round" stroke="rgb(74.509804%, 74.509804%, 74.509804%)" stroke-opacity="1" stroke-miterlimit="10" d="M 338.59375 93.917969 L 332.074219 99.925781 "/>
<path fill="none" stroke-width="1.707165" stroke-linecap="butt" stroke-linejoin="round" stroke="rgb(74.509804%, 74.509804%, 74.509804%)" stroke-opacity="1" stroke-miterlimit="10" d="M 333.789062 73.78125 L 332.074219 99.925781 "/>
<path fill="none" stroke-width="1.707165" stroke-linecap="butt" stroke-linejoin="round" stroke="rgb(74.509804%, 74.509804%, 74.509804%)" stroke-opacity="1" stroke-miterlimit="10" d="M 332.578125 79.414062 L 332.074219 99.925781 "/>
<path fill="none" stroke-width="1.707165" stroke-linecap="butt" stroke-linejoin="round" stroke="rgb(74.509804%, 74.509804%, 74.509804%)" stroke-opacity="1" stroke-miterlimit="10" d="M 338.824219 120.304688 L 332.074219 99.925781 "/>
<path fill="none" stroke-width="1.707165" stroke-linecap="butt" stroke-linejoin="round" stroke="rgb(74.509804%, 74.509804%, 74.509804%)" stroke-opacity="1" stroke-miterlimit="10" d="M 315.046875 116.085938 L 332.074219 99.925781 "/>
<path fill="none" stroke-width="1.707165" stroke-linecap="butt" stroke-linejoin="round" stroke="rgb(74.509804%, 74.509804%, 74.509804%)" stroke-opacity="1" stroke-miterlimit="10" d="M 328.949219 98.703125 L 332.074219 99.925781 "/>
<path fill="none" stroke-width="1.707165" stroke-linecap="butt" stroke-linejoin="round" stroke="rgb(74.509804%, 74.509804%, 74.509804%)" stroke-opacity="1" stroke-miterlimit="10" d="M 349.5 129.582031 L 332.074219 99.925781 "/>
<path fill="none" stroke-width="1.707165" stroke-linecap="butt" stroke-linejoin="round" stroke="rgb(74.509804%, 74.509804%, 74.509804%)" stroke-opacity="1" stroke-miterlimit="10" d="M 360.957031 84.796875 L 332.074219 99.925781 "/>
<path fill="none" stroke-width="1.707165" stroke-linecap="butt" stroke-linejoin="round" stroke="rgb(74.509804%, 74.509804%, 74.509804%)" stroke-opacity="1" stroke-miterlimit="10" d="M 335.847656 133.527344 L 332.074219 99.925781 "/>
<path fill="none" stroke-width="1.707165" stroke-linecap="butt" stroke-linejoin="round" stroke="rgb(74.509804%, 74.509804%, 74.509804%)" stroke-opacity="1" stroke-miterlimit="10" d="M 328.984375 57.28125 L 332.074219 99.925781 "/>
<path fill="none" stroke-width="1.707165" stroke-linecap="butt" stroke-linejoin="round" stroke="rgb(74.509804%, 74.509804%, 74.509804%)" stroke-opacity="1" stroke-miterlimit="10" d="M 308.148438 113.0625 L 332.074219 99.925781 "/>
<path fill="none" stroke-width="1.707165" stroke-linecap="butt" stroke-linejoin="round" stroke="rgb(74.509804%, 74.509804%, 74.509804%)" stroke-opacity="1" stroke-miterlimit="10" d="M 294.359375 55.894531 L 332.074219 99.925781 "/>
<path fill="none" stroke-width="1.707165" stroke-linecap="butt" stroke-linejoin="round" stroke="rgb(74.509804%, 74.509804%, 74.509804%)" stroke-opacity="1" stroke-miterlimit="10" d="M 311.164062 110.746094 L 332.074219 99.925781 "/>
<path fill="none" stroke-width="1.707165" stroke-linecap="butt" stroke-linejoin="round" stroke="rgb(74.509804%, 74.509804%, 74.509804%)" stroke-opacity="1" stroke-miterlimit="10" d="M 364.976562 125.433594 L 332.074219 99.925781 "/>
<path fill="none" stroke-width="1.707165" stroke-linecap="butt" stroke-linejoin="round" stroke="rgb(74.509804%, 74.509804%, 74.509804%)" stroke-opacity="1" stroke-miterlimit="10" d="M 352.332031 99.257812 L 332.074219 99.925781 "/>
<path fill="none" stroke-width="1.707165" stroke-linecap="butt" stroke-linejoin="round" stroke="rgb(74.509804%, 74.509804%, 74.509804%)" stroke-opacity="1" stroke-miterlimit="10" d="M 326.316406 99.203125 L 332.074219 99.925781 "/>
<path fill="none" stroke-width="1.707165" stroke-linecap="butt" stroke-linejoin="round" stroke="rgb(74.509804%, 74.509804%, 74.509804%)" stroke-opacity="1" stroke-miterlimit="10" d="M 320.929688 144.003906 L 332.074219 99.925781 "/>
<path fill="none" stroke-width="1.707165" stroke-linecap="butt" stroke-linejoin="round" stroke="rgb(74.509804%, 74.509804%, 74.509804%)" stroke-opacity="1" stroke-miterlimit="10" d="M 321.082031 72.28125 L 332.074219 99.925781 "/>
<path fill="none" stroke-width="1.707165" stroke-linecap="butt" stroke-linejoin="round" stroke="rgb(74.509804%, 74.509804%, 74.509804%)" stroke-opacity="1" stroke-miterlimit="10" d="M 358.230469 129.296875 L 332.074219 99.925781 "/>
<path fill="none" stroke-width="1.707165" stroke-linecap="butt" stroke-linejoin="round" stroke="rgb(74.509804%, 74.509804%, 74.509804%)" stroke-opacity="1" stroke-miterlimit="10" d="M 324.839844 91.121094 L 332.074219 99.925781 "/>
<path fill="none" stroke-width="1.707165" stroke-linecap="butt" stroke-linejoin="round" stroke="rgb(74.509804%, 74.509804%, 74.509804%)" stroke-opacity="1" stroke-miterlimit="10" d="M 365.027344 86.945312 L 332.074219 99.925781 "/>
<path fill="none" stroke-width="1.707165" stroke-linecap="butt" stroke-linejoin="round" stroke="rgb(74.509804%, 74.509804%, 74.509804%)" stroke-opacity="1" stroke-miterlimit="10" d="M 349.039062 96.304688 L 332.074219 99.925781 "/>
<path fill="none" stroke-width="1.066978" stroke-linecap="butt" stroke-linejoin="round" stroke="rgb(0%, 0%, 0%)" stroke-opacity="1" stroke-miterlimit="10" d="M 150.019531 22.808594 L 153.199219 25.992188 L 162.738281 35.53125 L 165.921875 38.710938 L 191.359375 64.148438 L 194.539062 67.332031 L 204.078125 76.871094 L 207.261719 80.050781 L 229.519531 102.308594 L 232.699219 105.492188 L 245.417969 118.210938 L 248.601562 121.390625 L 270.859375 143.648438 L 274.039062 146.832031 L 283.578125 156.371094 L 286.761719 159.550781 L 312.199219 184.988281 L 315.378906 188.171875 L 324.917969 197.710938 L 328.101562 200.890625 L 353.539062 226.328125 L 356.71875 229.511719 L 366.257812 239.050781 L 369.441406 242.230469 L 391.699219 264.488281 L 394.878906 267.671875 L 407.597656 280.390625 L 410.78125 283.570312 "/>
<path fill-rule="nonzero" fill="rgb(97.254902%, 46.27451%, 42.745098%)" fill-opacity="1" stroke-width="0.708661" stroke-linecap="round" stroke-linejoin="round" stroke="rgb(97.254902%, 46.27451%, 42.745098%)" stroke-opacity="1" stroke-miterlimit="10" d="M 262.222656 211.050781 C 262.222656 213.65625 258.3125 213.65625 258.3125 211.050781 C 258.3125 208.441406 262.222656 208.441406 262.222656 211.050781 "/>
<path fill-rule="nonzero" fill="rgb(97.254902%, 46.27451%, 42.745098%)" fill-opacity="1" stroke-width="0.708661" stroke-linecap="round" stroke-linejoin="round" stroke="rgb(97.254902%, 46.27451%, 42.745098%)" stroke-opacity="1" stroke-miterlimit="10" d="M 220.53125 219.109375 C 220.53125 221.714844 216.621094 221.714844 216.621094 219.109375 C 216.621094 216.5 220.53125 216.5 220.53125 219.109375 "/>
<path fill-rule="nonzero" fill="rgb(97.254902%, 46.27451%, 42.745098%)" fill-opacity="1" stroke-width="0.708661" stroke-linecap="round" stroke-linejoin="round" stroke="rgb(97.254902%, 46.27451%, 42.745098%)" stroke-opacity="1" stroke-miterlimit="10" d="M 263.976562 216.234375 C 263.976562 218.839844 260.066406 218.839844 260.066406 216.234375 C 260.066406 213.625 263.976562 213.625 263.976562 216.234375 "/>
<path fill-rule="nonzero" fill="rgb(97.254902%, 46.27451%, 42.745098%)" fill-opacity="1" stroke-width="0.708661" stroke-linecap="round" stroke-linejoin="round" stroke="rgb(97.254902%, 46.27451%, 42.745098%)" stroke-opacity="1" stroke-miterlimit="10" d="M 262.472656 221.902344 C 262.472656 224.511719 258.5625 224.511719 258.5625 221.902344 C 258.5625 219.296875 262.472656 219.296875 262.472656 221.902344 "/>
<path fill-rule="nonzero" fill="rgb(97.254902%, 46.27451%, 42.745098%)" fill-opacity="1" stroke-width="0.708661" stroke-linecap="round" stroke-linejoin="round" stroke="rgb(97.254902%, 46.27451%, 42.745098%)" stroke-opacity="1" stroke-miterlimit="10" d="M 239.96875 185.796875 C 239.96875 188.40625 236.058594 188.40625 236.058594 185.796875 C 236.058594 183.191406 239.96875 183.191406 239.96875 185.796875 "/>
<path fill-rule="nonzero" fill="rgb(97.254902%, 46.27451%, 42.745098%)" fill-opacity="1" stroke-width="0.708661" stroke-linecap="round" stroke-linejoin="round" stroke="rgb(97.254902%, 46.27451%, 42.745098%)" stroke-opacity="1" stroke-miterlimit="10" d="M 188.6875 174.644531 C 188.6875 177.25 184.78125 177.25 184.78125 174.644531 C 184.78125 172.039062 188.6875 172.039062 188.6875 174.644531 "/>
<path fill-rule="nonzero" fill="rgb(97.254902%, 46.27451%, 42.745098%)" fill-opacity="1" stroke-width="0.708661" stroke-linecap="round" stroke-linejoin="round" stroke="rgb(97.254902%, 46.27451%, 42.745098%)" stroke-opacity="1" stroke-miterlimit="10" d="M 204.730469 178.835938 C 204.730469 181.441406 200.820312 181.441406 200.820312 178.835938 C 200.820312 176.230469 204.730469 176.230469 204.730469 178.835938 "/>
<path fill-rule="nonzero" fill="rgb(97.254902%, 46.27451%, 42.745098%)" fill-opacity="1" stroke-width="0.708661" stroke-linecap="round" stroke-linejoin="round" stroke="rgb(97.254902%, 46.27451%, 42.745098%)" stroke-opacity="1" stroke-miterlimit="10" d="M 221.359375 216.132812 C 221.359375 218.738281 217.449219 218.738281 217.449219 216.132812 C 217.449219 213.527344 221.359375 213.527344 221.359375 216.132812 "/>
<path fill-rule="nonzero" fill="rgb(97.254902%, 46.27451%, 42.745098%)" fill-opacity="1" stroke-width="0.708661" stroke-linecap="round" stroke-linejoin="round" stroke="rgb(97.254902%, 46.27451%, 42.745098%)" stroke-opacity="1" stroke-miterlimit="10" d="M 228.9375 172.378906 C 228.9375 174.984375 225.027344 174.984375 225.027344 172.378906 C 225.027344 169.773438 228.9375 169.773438 228.9375 172.378906 "/>
<path fill-rule="nonzero" fill="rgb(97.254902%, 46.27451%, 42.745098%)" fill-opacity="1" stroke-width="0.708661" stroke-linecap="round" stroke-linejoin="round" stroke="rgb(97.254902%, 46.27451%, 42.745098%)" stroke-opacity="1" stroke-miterlimit="10" d="M 292.175781 212.195312 C 292.175781 214.800781 288.265625 214.800781 288.265625 212.195312 C 288.265625 209.585938 292.175781 209.585938 292.175781 212.195312 "/>
<path fill-rule="nonzero" fill="rgb(97.254902%, 46.27451%, 42.745098%)" fill-opacity="1" stroke-width="0.708661" stroke-linecap="round" stroke-linejoin="round" stroke="rgb(97.254902%, 46.27451%, 42.745098%)" stroke-opacity="1" stroke-miterlimit="10" d="M 249.121094 158.746094 C 249.121094 161.351562 245.214844 161.351562 245.214844 158.746094 C 245.214844 156.140625 249.121094 156.140625 249.121094 158.746094 "/>
<path fill-rule="nonzero" fill="rgb(97.254902%, 46.27451%, 42.745098%)" fill-opacity="1" stroke-width="0.708661" stroke-linecap="round" stroke-linejoin="round" stroke="rgb(97.254902%, 46.27451%, 42.745098%)" stroke-opacity="1" stroke-miterlimit="10" d="M 208.128906 190.152344 C 208.128906 192.761719 204.21875 192.761719 204.21875 190.152344 C 204.21875 187.546875 208.128906 187.546875 208.128906 190.152344 "/>
<path fill-rule="nonzero" fill="rgb(97.254902%, 46.27451%, 42.745098%)" fill-opacity="1" stroke-width="0.708661" stroke-linecap="round" stroke-linejoin="round" stroke="rgb(97.254902%, 46.27451%, 42.745098%)" stroke-opacity="1" stroke-miterlimit="10" d="M 198.980469 216.742188 C 198.980469 219.351562 195.070312 219.351562 195.070312 216.742188 C 195.070312 214.136719 198.980469 214.136719 198.980469 216.742188 "/>
<path fill-rule="nonzero" fill="rgb(97.254902%, 46.27451%, 42.745098%)" fill-opacity="1" stroke-width="0.708661" stroke-linecap="round" stroke-linejoin="round" stroke="rgb(97.254902%, 46.27451%, 42.745098%)" stroke-opacity="1" stroke-miterlimit="10" d="M 221.496094 226.695312 C 221.496094 229.300781 217.585938 229.300781 217.585938 226.695312 C 217.585938 224.085938 221.496094 224.085938 221.496094 226.695312 "/>
<path fill-rule="nonzero" fill="rgb(97.254902%, 46.27451%, 42.745098%)" fill-opacity="1" stroke-width="0.708661" stroke-linecap="round" stroke-linejoin="round" stroke="rgb(97.254902%, 46.27451%, 42.745098%)" stroke-opacity="1" stroke-miterlimit="10" d="M 221.238281 235.46875 C 221.238281 238.078125 217.332031 238.078125 217.332031 235.46875 C 217.332031 232.863281 221.238281 232.863281 221.238281 235.46875 "/>
<path fill-rule="nonzero" fill="rgb(97.254902%, 46.27451%, 42.745098%)" fill-opacity="1" stroke-width="0.708661" stroke-linecap="round" stroke-linejoin="round" stroke="rgb(97.254902%, 46.27451%, 42.745098%)" stroke-opacity="1" stroke-miterlimit="10" d="M 218.292969 232.820312 C 218.292969 235.425781 214.382812 235.425781 214.382812 232.820312 C 214.382812 230.214844 218.292969 230.214844 218.292969 232.820312 "/>
<path fill-rule="nonzero" fill="rgb(97.254902%, 46.27451%, 42.745098%)" fill-opacity="1" stroke-width="0.708661" stroke-linecap="round" stroke-linejoin="round" stroke="rgb(97.254902%, 46.27451%, 42.745098%)" stroke-opacity="1" stroke-miterlimit="10" d="M 235.707031 245.890625 C 235.707031 248.496094 231.796875 248.496094 231.796875 245.890625 C 231.796875 243.285156 235.707031 243.285156 235.707031 245.890625 "/>
<path fill-rule="nonzero" fill="rgb(97.254902%, 46.27451%, 42.745098%)" fill-opacity="1" stroke-width="0.708661" stroke-linecap="round" stroke-linejoin="round" stroke="rgb(97.254902%, 46.27451%, 42.745098%)" stroke-opacity="1" stroke-miterlimit="10" d="M 205.691406 174.523438 C 205.691406 177.128906 201.78125 177.128906 201.78125 174.523438 C 201.78125 171.917969 205.691406 171.917969 205.691406 174.523438 "/>
<path fill-rule="nonzero" fill="rgb(97.254902%, 46.27451%, 42.745098%)" fill-opacity="1" stroke-width="0.708661" stroke-linecap="round" stroke-linejoin="round" stroke="rgb(97.254902%, 46.27451%, 42.745098%)" stroke-opacity="1" stroke-miterlimit="10" d="M 240.519531 183.035156 C 240.519531 185.644531 236.609375 185.644531 236.609375 183.035156 C 236.609375 180.429688 240.519531 180.429688 240.519531 183.035156 "/>
<path fill-rule="nonzero" fill="rgb(97.254902%, 46.27451%, 42.745098%)" fill-opacity="1" stroke-width="0.708661" stroke-linecap="round" stroke-linejoin="round" stroke="rgb(97.254902%, 46.27451%, 42.745098%)" stroke-opacity="1" stroke-miterlimit="10" d="M 196.621094 210.828125 C 196.621094 213.433594 192.714844 213.433594 192.714844 210.828125 C 192.714844 208.222656 196.621094 208.222656 196.621094 210.828125 "/>
<path fill-rule="nonzero" fill="rgb(97.254902%, 46.27451%, 42.745098%)" fill-opacity="1" stroke-width="0.708661" stroke-linecap="round" stroke-linejoin="round" stroke="rgb(97.254902%, 46.27451%, 42.745098%)" stroke-opacity="1" stroke-miterlimit="10" d="M 223.207031 197.882812 C 223.207031 200.488281 219.296875 200.488281 219.296875 197.882812 C 219.296875 195.277344 223.207031 195.277344 223.207031 197.882812 "/>
<path fill-rule="nonzero" fill="rgb(97.254902%, 46.27451%, 42.745098%)" fill-opacity="1" stroke-width="0.708661" stroke-linecap="round" stroke-linejoin="round" stroke="rgb(97.254902%, 46.27451%, 42.745098%)" stroke-opacity="1" stroke-miterlimit="10" d="M 238.992188 214.746094 C 238.992188 217.355469 235.082031 217.355469 235.082031 214.746094 C 235.082031 212.140625 238.992188 212.140625 238.992188 214.746094 "/>
<path fill-rule="nonzero" fill="rgb(97.254902%, 46.27451%, 42.745098%)" fill-opacity="1" stroke-width="0.708661" stroke-linecap="round" stroke-linejoin="round" stroke="rgb(97.254902%, 46.27451%, 42.745098%)" stroke-opacity="1" stroke-miterlimit="10" d="M 232.585938 140.816406 C 232.585938 143.421875 228.679688 143.421875 228.679688 140.816406 C 228.679688 138.210938 232.585938 138.210938 232.585938 140.816406 "/>
<path fill-rule="nonzero" fill="rgb(97.254902%, 46.27451%, 42.745098%)" fill-opacity="1" stroke-width="0.708661" stroke-linecap="round" stroke-linejoin="round" stroke="rgb(97.254902%, 46.27451%, 42.745098%)" stroke-opacity="1" stroke-miterlimit="10" d="M 250.1875 225.730469 C 250.1875 228.335938 246.277344 228.335938 246.277344 225.730469 C 246.277344 223.125 250.1875 223.125 250.1875 225.730469 "/>
<path fill-rule="nonzero" fill="rgb(97.254902%, 46.27451%, 42.745098%)" fill-opacity="1" stroke-width="0.708661" stroke-linecap="round" stroke-linejoin="round" stroke="rgb(97.254902%, 46.27451%, 42.745098%)" stroke-opacity="1" stroke-miterlimit="10" d="M 227.589844 206.304688 C 227.589844 208.910156 223.683594 208.910156 223.683594 206.304688 C 223.683594 203.699219 227.589844 203.699219 227.589844 206.304688 "/>
<path fill-rule="nonzero" fill="rgb(97.254902%, 46.27451%, 42.745098%)" fill-opacity="1" stroke-width="0.708661" stroke-linecap="round" stroke-linejoin="round" stroke="rgb(97.254902%, 46.27451%, 42.745098%)" stroke-opacity="1" stroke-miterlimit="10" d="M 242.300781 198.300781 C 242.300781 200.910156 238.390625 200.910156 238.390625 198.300781 C 238.390625 195.695312 242.300781 195.695312 242.300781 198.300781 "/>
<path fill-rule="nonzero" fill="rgb(97.254902%, 46.27451%, 42.745098%)" fill-opacity="1" stroke-width="0.708661" stroke-linecap="round" stroke-linejoin="round" stroke="rgb(97.254902%, 46.27451%, 42.745098%)" stroke-opacity="1" stroke-miterlimit="10" d="M 257.574219 188.644531 C 257.574219 191.25 253.664062 191.25 253.664062 188.644531 C 253.664062 186.039062 257.574219 186.039062 257.574219 188.644531 "/>
<path fill-rule="nonzero" fill="rgb(97.254902%, 46.27451%, 42.745098%)" fill-opacity="1" stroke-width="0.708661" stroke-linecap="round" stroke-linejoin="round" stroke="rgb(97.254902%, 46.27451%, 42.745098%)" stroke-opacity="1" stroke-miterlimit="10" d="M 210.960938 209.394531 C 210.960938 212 207.054688 212 207.054688 209.394531 C 207.054688 206.789062 210.960938 206.789062 210.960938 209.394531 "/>
<path fill-rule="nonzero" fill="rgb(97.254902%, 46.27451%, 42.745098%)" fill-opacity="1" stroke-width="0.708661" stroke-linecap="round" stroke-linejoin="round" stroke="rgb(97.254902%, 46.27451%, 42.745098%)" stroke-opacity="1" stroke-miterlimit="10" d="M 195.386719 263.210938 C 195.386719 265.816406 191.480469 265.816406 191.480469 263.210938 C 191.480469 260.601562 195.386719 260.601562 195.386719 263.210938 "/>
<path fill-rule="nonzero" fill="rgb(97.254902%, 46.27451%, 42.745098%)" fill-opacity="1" stroke-width="0.708661" stroke-linecap="round" stroke-linejoin="round" stroke="rgb(97.254902%, 46.27451%, 42.745098%)" stroke-opacity="1" stroke-miterlimit="10" d="M 230.316406 238.015625 C 230.316406 240.621094 226.40625 240.621094 226.40625 238.015625 C 226.40625 235.410156 230.316406 235.410156 230.316406 238.015625 "/>
<path fill-rule="nonzero" fill="rgb(0%, 74.901961%, 76.862745%)" fill-opacity="1" stroke-width="0.708661" stroke-linecap="round" stroke-linejoin="round" stroke="rgb(0%, 74.901961%, 76.862745%)" stroke-opacity="1" stroke-miterlimit="10" d="M 343.441406 65.835938 C 343.441406 68.445312 339.53125 68.445312 339.53125 65.835938 C 339.53125 63.230469 343.441406 63.230469 343.441406 65.835938 "/>
<path fill-rule="nonzero" fill="rgb(0%, 74.901961%, 76.862745%)" fill-opacity="1" stroke-width="0.708661" stroke-linecap="round" stroke-linejoin="round" stroke="rgb(0%, 74.901961%, 76.862745%)" stroke-opacity="1" stroke-miterlimit="10" d="M 333.738281 122.835938 C 333.738281 125.441406 329.832031 125.441406 329.832031 122.835938 C 329.832031 120.230469 333.738281 120.230469 333.738281 122.835938 "/>
<path fill-rule="nonzero" fill="rgb(0%, 74.901961%, 76.862745%)" fill-opacity="1" stroke-width="0.708661" stroke-linecap="round" stroke-linejoin="round" stroke="rgb(0%, 74.901961%, 76.862745%)" stroke-opacity="1" stroke-miterlimit="10" d="M 309.351562 99.707031 C 309.351562 102.3125 305.441406 102.3125 305.441406 99.707031 C 305.441406 97.097656 309.351562 97.097656 309.351562 99.707031 "/>
<path fill-rule="nonzero" fill="rgb(0%, 74.901961%, 76.862745%)" fill-opacity="1" stroke-width="0.708661" stroke-linecap="round" stroke-linejoin="round" stroke="rgb(0%, 74.901961%, 76.862745%)" stroke-opacity="1" stroke-miterlimit="10" d="M 330.992188 123.035156 C 330.992188 125.640625 327.082031 125.640625 327.082031 123.035156 C 327.082031 120.429688 330.992188 120.429688 330.992188 123.035156 "/>
<path fill-rule="nonzero" fill="rgb(0%, 74.901961%, 76.862745%)" fill-opacity="1" stroke-width="0.708661" stroke-linecap="round" stroke-linejoin="round" stroke="rgb(0%, 74.901961%, 76.862745%)" stroke-opacity="1" stroke-miterlimit="10" d="M 312.648438 84.28125 C 312.648438 86.890625 308.738281 86.890625 308.738281 84.28125 C 308.738281 81.675781 312.648438 81.675781 312.648438 84.28125 "/>
<path fill-rule="nonzero" fill="rgb(0%, 74.901961%, 76.862745%)" fill-opacity="1" stroke-width="0.708661" stroke-linecap="round" stroke-linejoin="round" stroke="rgb(0%, 74.901961%, 76.862745%)" stroke-opacity="1" stroke-miterlimit="10" d="M 340.386719 96.785156 C 340.386719 99.390625 336.476562 99.390625 336.476562 96.785156 C 336.476562 94.179688 340.386719 94.179688 340.386719 96.785156 "/>
<path fill-rule="nonzero" fill="rgb(0%, 74.901961%, 76.862745%)" fill-opacity="1" stroke-width="0.708661" stroke-linecap="round" stroke-linejoin="round" stroke="rgb(0%, 74.901961%, 76.862745%)" stroke-opacity="1" stroke-miterlimit="10" d="M 296.640625 107.328125 C 296.640625 109.933594 292.734375 109.933594 292.734375 107.328125 C 292.734375 104.722656 296.640625 104.722656 296.640625 107.328125 "/>
<path fill-rule="nonzero" fill="rgb(0%, 74.901961%, 76.862745%)" fill-opacity="1" stroke-width="0.708661" stroke-linecap="round" stroke-linejoin="round" stroke="rgb(0%, 74.901961%, 76.862745%)" stroke-opacity="1" stroke-miterlimit="10" d="M 343.628906 61.726562 C 343.628906 64.332031 339.71875 64.332031 339.71875 61.726562 C 339.71875 59.121094 343.628906 59.121094 343.628906 61.726562 "/>
<path fill-rule="nonzero" fill="rgb(0%, 74.901961%, 76.862745%)" fill-opacity="1" stroke-width="0.708661" stroke-linecap="round" stroke-linejoin="round" stroke="rgb(0%, 74.901961%, 76.862745%)" stroke-opacity="1" stroke-miterlimit="10" d="M 340.546875 93.917969 C 340.546875 96.523438 336.636719 96.523438 336.636719 93.917969 C 336.636719 91.3125 340.546875 91.3125 340.546875 93.917969 "/>
<path fill-rule="nonzero" fill="rgb(0%, 74.901961%, 76.862745%)" fill-opacity="1" stroke-width="0.708661" stroke-linecap="round" stroke-linejoin="round" stroke="rgb(0%, 74.901961%, 76.862745%)" stroke-opacity="1" stroke-miterlimit="10" d="M 335.742188 73.78125 C 335.742188 76.386719 331.832031 76.386719 331.832031 73.78125 C 331.832031 71.175781 335.742188 71.175781 335.742188 73.78125 "/>
<path fill-rule="nonzero" fill="rgb(0%, 74.901961%, 76.862745%)" fill-opacity="1" stroke-width="0.708661" stroke-linecap="round" stroke-linejoin="round" stroke="rgb(0%, 74.901961%, 76.862745%)" stroke-opacity="1" stroke-miterlimit="10" d="M 334.53125 79.414062 C 334.53125 82.019531 330.621094 82.019531 330.621094 79.414062 C 330.621094 76.808594 334.53125 76.808594 334.53125 79.414062 "/>
<path fill-rule="nonzero" fill="rgb(0%, 74.901961%, 76.862745%)" fill-opacity="1" stroke-width="0.708661" stroke-linecap="round" stroke-linejoin="round" stroke="rgb(0%, 74.901961%, 76.862745%)" stroke-opacity="1" stroke-miterlimit="10" d="M 340.78125 120.304688 C 340.78125 122.910156 336.871094 122.910156 336.871094 120.304688 C 336.871094 117.699219 340.78125 117.699219 340.78125 120.304688 "/>
<path fill-rule="nonzero" fill="rgb(0%, 74.901961%, 76.862745%)" fill-opacity="1" stroke-width="0.708661" stroke-linecap="round" stroke-linejoin="round" stroke="rgb(0%, 74.901961%, 76.862745%)" stroke-opacity="1" stroke-miterlimit="10" d="M 317.003906 116.085938 C 317.003906 118.691406 313.09375 118.691406 313.09375 116.085938 C 313.09375 113.480469 317.003906 113.480469 317.003906 116.085938 "/>
<path fill-rule="nonzero" fill="rgb(0%, 74.901961%, 76.862745%)" fill-opacity="1" stroke-width="0.708661" stroke-linecap="round" stroke-linejoin="round" stroke="rgb(0%, 74.901961%, 76.862745%)" stroke-opacity="1" stroke-miterlimit="10" d="M 330.902344 98.703125 C 330.902344 101.308594 326.992188 101.308594 326.992188 98.703125 C 326.992188 96.097656 330.902344 96.097656 330.902344 98.703125 "/>
<path fill-rule="nonzero" fill="rgb(0%, 74.901961%, 76.862745%)" fill-opacity="1" stroke-width="0.708661" stroke-linecap="round" stroke-linejoin="round" stroke="rgb(0%, 74.901961%, 76.862745%)" stroke-opacity="1" stroke-miterlimit="10" d="M 351.453125 129.582031 C 351.453125 132.1875 347.542969 132.1875 347.542969 129.582031 C 347.542969 126.972656 351.453125 126.972656 351.453125 129.582031 "/>
<path fill-rule="nonzero" fill="rgb(0%, 74.901961%, 76.862745%)" fill-opacity="1" stroke-width="0.708661" stroke-linecap="round" stroke-linejoin="round" stroke="rgb(0%, 74.901961%, 76.862745%)" stroke-opacity="1" stroke-miterlimit="10" d="M 362.914062 84.796875 C 362.914062 87.402344 359.003906 87.402344 359.003906 84.796875 C 359.003906 82.1875 362.914062 82.1875 362.914062 84.796875 "/>
<path fill-rule="nonzero" fill="rgb(0%, 74.901961%, 76.862745%)" fill-opacity="1" stroke-width="0.708661" stroke-linecap="round" stroke-linejoin="round" stroke="rgb(0%, 74.901961%, 76.862745%)" stroke-opacity="1" stroke-miterlimit="10" d="M 337.800781 133.527344 C 337.800781 136.132812 333.890625 136.132812 333.890625 133.527344 C 333.890625 130.917969 337.800781 130.917969 337.800781 133.527344 "/>
<path fill-rule="nonzero" fill="rgb(0%, 74.901961%, 76.862745%)" fill-opacity="1" stroke-width="0.708661" stroke-linecap="round" stroke-linejoin="round" stroke="rgb(0%, 74.901961%, 76.862745%)" stroke-opacity="1" stroke-miterlimit="10" d="M 330.941406 57.28125 C 330.941406 59.886719 327.03125 59.886719 327.03125 57.28125 C 327.03125 54.675781 330.941406 54.675781 330.941406 57.28125 "/>
<path fill-rule="nonzero" fill="rgb(0%, 74.901961%, 76.862745%)" fill-opacity="1" stroke-width="0.708661" stroke-linecap="round" stroke-linejoin="round" stroke="rgb(0%, 74.901961%, 76.862745%)" stroke-opacity="1" stroke-miterlimit="10" d="M 310.101562 113.0625 C 310.101562 115.667969 306.191406 115.667969 306.191406 113.0625 C 306.191406 110.453125 310.101562 110.453125 310.101562 113.0625 "/>
<path fill-rule="nonzero" fill="rgb(0%, 74.901961%, 76.862745%)" fill-opacity="1" stroke-width="0.708661" stroke-linecap="round" stroke-linejoin="round" stroke="rgb(0%, 74.901961%, 76.862745%)" stroke-opacity="1" stroke-miterlimit="10" d="M 296.316406 55.894531 C 296.316406 58.5 292.40625 58.5 292.40625 55.894531 C 292.40625 53.289062 296.316406 53.289062 296.316406 55.894531 "/>
<path fill-rule="nonzero" fill="rgb(0%, 74.901961%, 76.862745%)" fill-opacity="1" stroke-width="0.708661" stroke-linecap="round" stroke-linejoin="round" stroke="rgb(0%, 74.901961%, 76.862745%)" stroke-opacity="1" stroke-miterlimit="10" d="M 313.117188 110.746094 C 313.117188 113.355469 309.207031 113.355469 309.207031 110.746094 C 309.207031 108.140625 313.117188 108.140625 313.117188 110.746094 "/>
<path fill-rule="nonzero" fill="rgb(0%, 74.901961%, 76.862745%)" fill-opacity="1" stroke-width="0.708661" stroke-linecap="round" stroke-linejoin="round" stroke="rgb(0%, 74.901961%, 76.862745%)" stroke-opacity="1" stroke-miterlimit="10" d="M 366.929688 125.433594 C 366.929688 128.039062 363.019531 128.039062 363.019531 125.433594 C 363.019531 122.828125 366.929688 122.828125 366.929688 125.433594 "/>
<path fill-rule="nonzero" fill="rgb(0%, 74.901961%, 76.862745%)" fill-opacity="1" stroke-width="0.708661" stroke-linecap="round" stroke-linejoin="round" stroke="rgb(0%, 74.901961%, 76.862745%)" stroke-opacity="1" stroke-miterlimit="10" d="M 354.285156 99.257812 C 354.285156 101.867188 350.378906 101.867188 350.378906 99.257812 C 350.378906 96.652344 354.285156 96.652344 354.285156 99.257812 "/>
<path fill-rule="nonzero" fill="rgb(0%, 74.901961%, 76.862745%)" fill-opacity="1" stroke-width="0.708661" stroke-linecap="round" stroke-linejoin="round" stroke="rgb(0%, 74.901961%, 76.862745%)" stroke-opacity="1" stroke-miterlimit="10" d="M 328.269531 99.203125 C 328.269531 101.8125 324.359375 101.8125 324.359375 99.203125 C 324.359375 96.597656 328.269531 96.597656 328.269531 99.203125 "/>
<path fill-rule="nonzero" fill="rgb(0%, 74.901961%, 76.862745%)" fill-opacity="1" stroke-width="0.708661" stroke-linecap="round" stroke-linejoin="round" stroke="rgb(0%, 74.901961%, 76.862745%)" stroke-opacity="1" stroke-miterlimit="10" d="M 322.882812 144.003906 C 322.882812 146.609375 318.976562 146.609375 318.976562 144.003906 C 318.976562 141.398438 322.882812 141.398438 322.882812 144.003906 "/>
<path fill-rule="nonzero" fill="rgb(0%, 74.901961%, 76.862745%)" fill-opacity="1" stroke-width="0.708661" stroke-linecap="round" stroke-linejoin="round" stroke="rgb(0%, 74.901961%, 76.862745%)" stroke-opacity="1" stroke-miterlimit="10" d="M 323.039062 72.28125 C 323.039062 74.886719 319.128906 74.886719 319.128906 72.28125 C 319.128906 69.671875 323.039062 69.671875 323.039062 72.28125 "/>
<path fill-rule="nonzero" fill="rgb(0%, 74.901961%, 76.862745%)" fill-opacity="1" stroke-width="0.708661" stroke-linecap="round" stroke-linejoin="round" stroke="rgb(0%, 74.901961%, 76.862745%)" stroke-opacity="1" stroke-miterlimit="10" d="M 360.183594 129.296875 C 360.183594 131.90625 356.277344 131.90625 356.277344 129.296875 C 356.277344 126.691406 360.183594 126.691406 360.183594 129.296875 "/>
<path fill-rule="nonzero" fill="rgb(0%, 74.901961%, 76.862745%)" fill-opacity="1" stroke-width="0.708661" stroke-linecap="round" stroke-linejoin="round" stroke="rgb(0%, 74.901961%, 76.862745%)" stroke-opacity="1" stroke-miterlimit="10" d="M 326.792969 91.121094 C 326.792969 93.726562 322.886719 93.726562 322.886719 91.121094 C 322.886719 88.515625 326.792969 88.515625 326.792969 91.121094 "/>
<path fill-rule="nonzero" fill="rgb(0%, 74.901961%, 76.862745%)" fill-opacity="1" stroke-width="0.708661" stroke-linecap="round" stroke-linejoin="round" stroke="rgb(0%, 74.901961%, 76.862745%)" stroke-opacity="1" stroke-miterlimit="10" d="M 366.980469 86.945312 C 366.980469 89.550781 363.070312 89.550781 363.070312 86.945312 C 363.070312 84.339844 366.980469 84.339844 366.980469 86.945312 "/>
<path fill-rule="nonzero" fill="rgb(0%, 74.901961%, 76.862745%)" fill-opacity="1" stroke-width="0.708661" stroke-linecap="round" stroke-linejoin="round" stroke="rgb(0%, 74.901961%, 76.862745%)" stroke-opacity="1" stroke-miterlimit="10" d="M 350.996094 96.304688 C 350.996094 98.910156 347.085938 98.910156 347.085938 96.304688 C 347.085938 93.695312 350.996094 93.695312 350.996094 96.304688 "/>
<path fill-rule="nonzero" fill="rgb(0%, 0%, 0%)" fill-opacity="1" stroke-width="0.708661" stroke-linecap="round" stroke-linejoin="round" stroke="rgb(0%, 0%, 0%)" stroke-opacity="1" stroke-miterlimit="10" d="M 230.691406 204.863281 C 230.691406 209.605469 223.578125 209.605469 223.578125 204.863281 C 223.578125 200.125 230.691406 200.125 230.691406 204.863281 "/>
<path fill-rule="nonzero" fill="rgb(0%, 0%, 0%)" fill-opacity="1" stroke-width="0.708661" stroke-linecap="round" stroke-linejoin="round" stroke="rgb(0%, 0%, 0%)" stroke-opacity="1" stroke-miterlimit="10" d="M 335.628906 99.925781 C 335.628906 104.664062 328.519531 104.664062 328.519531 99.925781 C 328.519531 95.183594 335.628906 95.183594 335.628906 99.925781 "/>
<path fill-rule="nonzero" fill="rgb(100%, 0%, 0%)" fill-opacity="0.2" stroke-width="1.066978" stroke-linecap="round" stroke-linejoin="round" stroke="rgb(100%, 0%, 0%)" stroke-opacity="1" stroke-dasharray="4.267913 4.267913" stroke-miterlimit="10" d="M 292.722656 204.863281 L 292.710938 203.71875 L 292.683594 202.574219 L 292.632812 201.433594 L 292.5625 200.289062 L 292.472656 199.148438 L 292.363281 198.007812 L 292.234375 196.871094 L 292.085938 195.738281 L 291.914062 194.605469 L 291.726562 193.476562 L 291.515625 192.351562 L 291.289062 191.230469 L 291.042969 190.109375 L 290.773438 189 L 290.488281 187.890625 L 290.179688 186.785156 L 289.855469 185.6875 L 289.511719 184.597656 L 289.148438 183.511719 L 288.765625 182.433594 L 288.367188 181.359375 L 287.945312 180.296875 L 287.507812 179.238281 L 287.050781 178.1875 L 286.578125 177.148438 L 286.085938 176.113281 L 285.574219 175.089844 L 285.046875 174.074219 L 284.5 173.066406 L 283.933594 172.070312 L 283.355469 171.085938 L 282.757812 170.109375 L 282.140625 169.144531 L 281.507812 168.1875 L 280.859375 167.246094 L 280.195312 166.3125 L 279.515625 165.394531 L 278.820312 164.484375 L 278.105469 163.589844 L 277.378906 162.707031 L 276.632812 161.835938 L 275.875 160.980469 L 275.101562 160.132812 L 274.316406 159.304688 L 273.511719 158.488281 L 272.695312 157.683594 L 271.867188 156.898438 L 271.019531 156.125 L 270.164062 155.367188 L 269.292969 154.621094 L 268.410156 153.894531 L 267.515625 153.179688 L 266.605469 152.484375 L 265.6875 151.804688 L 264.753906 151.140625 L 263.8125 150.492188 L 262.855469 149.859375 L 261.890625 149.242188 L 260.914062 148.644531 L 259.929688 148.066406 L 258.933594 147.5 L 257.925781 146.953125 L 256.910156 146.425781 L 255.886719 145.914062 L 254.851562 145.421875 L 253.8125 144.949219 L 252.761719 144.492188 L 251.703125 144.054688 L 250.640625 143.632812 L 249.566406 143.234375 L 248.488281 142.851562 L 247.402344 142.488281 L 246.3125 142.144531 L 245.214844 141.820312 L 244.109375 141.511719 L 243 141.226562 L 241.890625 140.957031 L 240.769531 140.710938 L 239.648438 140.484375 L 238.523438 140.273438 L 237.394531 140.085938 L 236.261719 139.914062 L 235.128906 139.765625 L 233.992188 139.636719 L 232.851562 139.527344 L 231.710938 139.4375 L 230.566406 139.367188 L 229.425781 139.316406 L 228.28125 139.289062 L 227.136719 139.277344 L 225.992188 139.289062 L 224.847656 139.316406 L 223.703125 139.367188 L 222.558594 139.4375 L 221.417969 139.527344 L 220.277344 139.636719 L 219.140625 139.765625 L 218.007812 139.914062 L 216.875 140.085938 L 215.746094 140.273438 L 214.621094 140.484375 L 213.5 140.710938 L 212.382812 140.957031 L 211.269531 141.226562 L 210.160156 141.511719 L 209.054688 141.820312 L 207.960938 142.144531 L 206.867188 142.488281 L 205.78125 142.851562 L 204.703125 143.234375 L 203.628906 143.632812 L 202.566406 144.054688 L 201.507812 144.492188 L 200.457031 144.949219 L 199.417969 145.421875 L 198.382812 145.914062 L 197.359375 146.425781 L 196.34375 146.953125 L 195.335938 147.5 L 194.339844 148.066406 L 193.355469 148.644531 L 192.378906 149.242188 L 191.414062 149.859375 L 190.457031 150.492188 L 189.515625 151.140625 L 188.582031 151.804688 L 187.664062 152.484375 L 186.753906 153.179688 L 185.859375 153.894531 L 184.976562 154.621094 L 184.105469 155.367188 L 183.25 156.125 L 182.40625 156.898438 L 181.574219 157.683594 L 180.757812 158.488281 L 179.957031 159.304688 L 179.167969 160.132812 L 178.394531 160.980469 L 177.636719 161.835938 L 176.890625 162.707031 L 176.164062 163.589844 L 175.453125 164.484375 L 174.753906 165.394531 L 174.074219 166.3125 L 173.410156 167.246094 L 172.761719 168.1875 L 172.128906 169.144531 L 171.511719 170.109375 L 170.914062 171.085938 L 170.335938 172.070312 L 169.769531 173.066406 L 169.226562 174.074219 L 168.695312 175.089844 L 168.183594 176.113281 L 167.691406 177.148438 L 167.21875 178.1875 L 166.761719 179.238281 L 166.324219 180.296875 L 165.902344 181.359375 L 165.503906 182.433594 L 165.121094 183.511719 L 164.757812 184.597656 L 164.414062 185.6875 L 164.089844 186.785156 L 163.78125 187.890625 L 163.496094 189 L 163.230469 190.109375 L 162.980469 191.230469 L 162.753906 192.351562 L 162.542969 193.476562 L 162.355469 194.605469 L 162.1875 195.738281 L 162.035156 196.871094 L 161.90625 198.007812 L 161.796875 199.148438 L 161.707031 200.289062 L 161.636719 201.433594 L 161.585938 202.574219 L 161.558594 203.71875 L 161.546875 204.863281 L 161.558594 206.007812 L 161.585938 207.152344 L 161.636719 208.296875 L 161.707031 209.441406 L 161.796875 210.582031 L 161.90625 211.722656 L 162.035156 212.859375 L 162.1875 213.992188 L 162.355469 215.125 L 162.542969 216.253906 L 162.753906 217.378906 L 162.980469 218.5 L 163.230469 219.617188 L 163.496094 220.730469 L 163.78125 221.839844 L 164.089844 222.945312 L 164.414062 224.039062 L 164.757812 225.132812 L 165.121094 226.21875 L 165.503906 227.296875 L 165.902344 228.371094 L 166.324219 229.433594 L 166.761719 230.492188 L 167.21875 231.542969 L 167.691406 232.582031 L 168.183594 233.617188 L 168.695312 234.640625 L 169.226562 235.65625 L 169.769531 236.664062 L 170.335938 237.660156 L 170.914062 238.644531 L 171.511719 239.621094 L 172.128906 240.585938 L 172.761719 241.542969 L 173.410156 242.484375 L 174.074219 243.417969 L 174.753906 244.335938 L 175.453125 245.246094 L 176.164062 246.140625 L 176.890625 247.023438 L 177.636719 247.894531 L 178.394531 248.75 L 179.167969 249.59375 L 179.957031 250.425781 L 180.757812 251.242188 L 181.574219 252.042969 L 182.40625 252.832031 L 183.25 253.605469 L 184.105469 254.363281 L 184.976562 255.109375 L 185.859375 255.835938 L 186.753906 256.546875 L 187.664062 257.246094 L 188.582031 257.925781 L 189.515625 258.589844 L 190.457031 259.238281 L 191.414062 259.871094 L 192.378906 260.488281 L 193.355469 261.085938 L 194.339844 261.664062 L 195.335938 262.230469 L 196.34375 262.773438 L 197.359375 263.304688 L 198.382812 263.816406 L 199.417969 264.308594 L 200.457031 264.78125 L 201.507812 265.238281 L 202.566406 265.675781 L 203.628906 266.097656 L 204.703125 266.496094 L 205.78125 266.878906 L 206.867188 267.242188 L 207.960938 267.585938 L 209.054688 267.910156 L 210.160156 268.21875 L 211.269531 268.503906 L 212.382812 268.769531 L 213.5 269.019531 L 214.621094 269.246094 L 215.746094 269.457031 L 216.875 269.644531 L 218.007812 269.8125 L 219.140625 269.964844 L 220.277344 270.09375 L 221.417969 270.203125 L 222.558594 270.292969 L 223.703125 270.363281 L 224.847656 270.414062 L 225.992188 270.441406 L 227.136719 270.453125 L 228.28125 270.441406 L 229.425781 270.414062 L 230.566406 270.363281 L 231.710938 270.292969 L 232.851562 270.203125 L 233.992188 270.09375 L 235.128906 269.964844 L 236.261719 269.8125 L 237.394531 269.644531 L 238.523438 269.457031 L 239.648438 269.246094 L 240.769531 269.019531 L 241.890625 268.769531 L 243 268.503906 L 244.109375 268.21875 L 245.214844 267.910156 L 246.3125 267.585938 L 247.402344 267.242188 L 248.488281 266.878906 L 249.566406 266.496094 L 250.640625 266.097656 L 251.703125 265.675781 L 252.761719 265.238281 L 253.8125 264.78125 L 254.851562 264.308594 L 255.886719 263.816406 L 256.910156 263.304688 L 257.925781 262.773438 L 258.933594 262.230469 L 259.929688 261.664062 L 260.914062 261.085938 L 261.890625 260.488281 L 262.855469 259.871094 L 263.8125 259.238281 L 264.753906 258.589844 L 265.6875 257.925781 L 266.605469 257.246094 L 267.515625 256.546875 L 268.410156 255.835938 L 269.292969 255.109375 L 270.164062 254.363281 L 271.019531 253.605469 L 271.867188 252.832031 L 272.695312 252.042969 L 273.511719 251.242188 L 274.316406 250.425781 L 275.101562 249.59375 L 275.875 248.75 L 276.632812 247.894531 L 277.378906 247.023438 L 278.105469 246.140625 L 278.820312 245.246094 L 279.515625 244.335938 L 280.195312 243.417969 L 280.859375 242.484375 L 281.507812 241.542969 L 282.140625 240.585938 L 282.757812 239.621094 L 283.355469 238.644531 L 283.933594 237.660156 L 284.5 236.664062 L 285.046875 235.65625 L 285.574219 234.640625 L 286.085938 233.617188 L 286.578125 232.582031 L 287.050781 231.542969 L 287.507812 230.492188 L 287.945312 229.433594 L 288.367188 228.371094 L 288.765625 227.296875 L 289.148438 226.21875 L 289.511719 225.132812 L 289.855469 224.039062 L 290.179688 222.945312 L 290.488281 221.839844 L 290.773438 220.730469 L 291.042969 219.617188 L 291.289062 218.5 L 291.515625 217.378906 L 291.726562 216.253906 L 291.914062 215.125 L 292.085938 213.992188 L 292.234375 212.859375 L 292.363281 211.722656 L 292.472656 210.582031 L 292.5625 209.441406 L 292.632812 208.296875 L 292.683594 207.152344 L 292.710938 206.007812 Z M 292.722656 204.863281 "/>
<path fill-rule="nonzero" fill="rgb(0%, 100%, 0%)" fill-opacity="0.2" stroke-width="1.066978" stroke-linecap="round" stroke-linejoin="round" stroke="rgb(0%, 100%, 0%)" stroke-opacity="1" stroke-dasharray="4.267913 4.267913" stroke-miterlimit="10" d="M 397.660156 99.925781 L 397.652344 98.78125 L 397.621094 97.636719 L 397.570312 96.492188 L 397.503906 95.351562 L 397.414062 94.207031 L 397.304688 93.070312 L 397.171875 91.933594 L 397.023438 90.796875 L 396.855469 89.664062 L 396.664062 88.535156 L 396.457031 87.410156 L 396.230469 86.289062 L 395.980469 85.171875 L 395.714844 84.058594 L 395.425781 82.949219 L 395.121094 81.847656 L 394.796875 80.75 L 394.453125 79.65625 L 394.089844 78.570312 L 393.707031 77.492188 L 393.304688 76.421875 L 392.886719 75.355469 L 392.449219 74.296875 L 391.992188 73.25 L 391.515625 72.207031 L 391.023438 71.171875 L 390.511719 70.148438 L 389.984375 69.132812 L 389.4375 68.128906 L 388.875 67.132812 L 388.292969 66.144531 L 387.695312 65.167969 L 387.082031 64.203125 L 386.449219 63.25 L 385.800781 62.304688 L 385.136719 61.375 L 384.457031 60.453125 L 383.757812 59.546875 L 383.046875 58.648438 L 382.316406 57.765625 L 381.574219 56.894531 L 380.816406 56.039062 L 380.042969 55.195312 L 379.253906 54.363281 L 378.453125 53.546875 L 377.636719 52.746094 L 376.804688 51.957031 L 375.960938 51.183594 L 375.105469 50.425781 L 374.234375 49.683594 L 373.351562 48.953125 L 372.453125 48.242188 L 371.546875 47.542969 L 370.625 46.863281 L 369.695312 46.199219 L 368.75 45.550781 L 367.796875 44.917969 L 366.832031 44.304688 L 365.855469 43.707031 L 364.867188 43.125 L 363.871094 42.5625 L 362.867188 42.015625 L 361.851562 41.488281 L 360.828125 40.976562 L 359.792969 40.484375 L 358.75 40.007812 L 357.703125 39.550781 L 356.644531 39.113281 L 355.578125 38.695312 L 354.507812 38.292969 L 353.429688 37.910156 L 352.34375 37.546875 L 351.25 37.203125 L 350.152344 36.878906 L 349.050781 36.574219 L 347.941406 36.285156 L 346.828125 36.019531 L 345.710938 35.769531 L 344.589844 35.542969 L 343.464844 35.335938 L 342.335938 35.144531 L 341.203125 34.976562 L 340.066406 34.828125 L 338.929688 34.695312 L 337.792969 34.585938 L 336.648438 34.496094 L 335.507812 34.429688 L 334.363281 34.378906 L 333.21875 34.347656 L 332.074219 34.339844 L 330.929688 34.347656 L 329.785156 34.378906 L 328.640625 34.429688 L 327.5 34.496094 L 326.359375 34.585938 L 325.21875 34.695312 L 324.082031 34.828125 L 322.945312 34.976562 L 321.816406 35.144531 L 320.6875 35.335938 L 319.558594 35.542969 L 318.4375 35.769531 L 317.320312 36.019531 L 316.207031 36.285156 L 315.097656 36.574219 L 313.996094 36.878906 L 312.898438 37.203125 L 311.808594 37.546875 L 310.722656 37.910156 L 309.640625 38.292969 L 308.570312 38.695312 L 307.503906 39.113281 L 306.449219 39.550781 L 305.398438 40.007812 L 304.355469 40.484375 L 303.324219 40.976562 L 302.296875 41.488281 L 301.285156 42.015625 L 300.277344 42.5625 L 299.28125 43.125 L 298.292969 43.707031 L 297.320312 44.304688 L 296.351562 44.917969 L 295.398438 45.550781 L 294.457031 46.199219 L 293.523438 46.863281 L 292.601562 47.542969 L 291.695312 48.242188 L 290.800781 48.953125 L 289.914062 49.683594 L 289.046875 50.425781 L 288.1875 51.183594 L 287.34375 51.957031 L 286.515625 52.746094 L 285.699219 53.546875 L 284.894531 54.363281 L 284.105469 55.195312 L 283.332031 56.039062 L 282.574219 56.894531 L 281.832031 57.765625 L 281.105469 58.648438 L 280.390625 59.546875 L 279.695312 60.453125 L 279.011719 61.375 L 278.347656 62.304688 L 277.699219 63.25 L 277.070312 64.203125 L 276.453125 65.167969 L 275.855469 66.144531 L 275.273438 67.132812 L 274.710938 68.128906 L 274.164062 69.132812 L 273.636719 70.148438 L 273.125 71.171875 L 272.632812 72.207031 L 272.15625 73.25 L 271.703125 74.296875 L 271.261719 75.355469 L 270.84375 76.421875 L 270.441406 77.492188 L 270.0625 78.570312 L 269.699219 79.65625 L 269.351562 80.75 L 269.027344 81.847656 L 268.722656 82.949219 L 268.4375 84.058594 L 268.167969 85.171875 L 267.921875 86.289062 L 267.691406 87.410156 L 267.484375 88.535156 L 267.292969 89.664062 L 267.125 90.796875 L 266.976562 91.933594 L 266.847656 93.070312 L 266.738281 94.207031 L 266.648438 95.351562 L 266.578125 96.492188 L 266.527344 97.636719 L 266.496094 98.78125 L 266.488281 99.925781 L 266.496094 101.070312 L 266.527344 102.214844 L 266.578125 103.359375 L 266.648438 104.5 L 266.738281 105.640625 L 266.847656 106.78125 L 266.976562 107.917969 L 267.125 109.054688 L 267.292969 110.183594 L 267.484375 111.3125 L 267.691406 112.441406 L 267.921875 113.5625 L 268.167969 114.679688 L 268.4375 115.792969 L 268.722656 116.902344 L 269.027344 118.003906 L 269.351562 119.101562 L 269.699219 120.191406 L 270.0625 121.277344 L 270.441406 122.359375 L 270.84375 123.429688 L 271.261719 124.496094 L 271.703125 125.550781 L 272.15625 126.601562 L 272.632812 127.644531 L 273.125 128.675781 L 273.636719 129.703125 L 274.164062 130.714844 L 274.710938 131.722656 L 275.273438 132.71875 L 275.855469 133.707031 L 276.453125 134.679688 L 277.070312 135.648438 L 277.699219 136.601562 L 278.347656 137.542969 L 279.011719 138.476562 L 279.695312 139.398438 L 280.390625 140.304688 L 281.105469 141.199219 L 281.832031 142.085938 L 282.574219 142.953125 L 283.332031 143.8125 L 284.105469 144.65625 L 284.894531 145.484375 L 285.699219 146.300781 L 286.515625 147.105469 L 287.34375 147.894531 L 288.1875 148.667969 L 289.046875 149.425781 L 289.914062 150.167969 L 290.800781 150.894531 L 291.695312 151.609375 L 292.601562 152.304688 L 293.523438 152.988281 L 294.457031 153.652344 L 295.398438 154.300781 L 296.351562 154.929688 L 297.320312 155.546875 L 298.292969 156.144531 L 299.28125 156.726562 L 300.277344 157.289062 L 301.285156 157.835938 L 302.296875 158.363281 L 303.324219 158.875 L 304.355469 159.367188 L 305.398438 159.84375 L 306.449219 160.296875 L 307.503906 160.738281 L 308.570312 161.15625 L 309.640625 161.558594 L 310.722656 161.9375 L 311.808594 162.300781 L 312.898438 162.648438 L 313.996094 162.972656 L 315.097656 163.277344 L 316.207031 163.5625 L 317.320312 163.832031 L 318.4375 164.078125 L 319.558594 164.308594 L 320.6875 164.515625 L 321.816406 164.707031 L 322.945312 164.875 L 324.082031 165.023438 L 325.21875 165.152344 L 326.359375 165.261719 L 327.5 165.351562 L 328.640625 165.421875 L 329.785156 165.472656 L 330.929688 165.503906 L 332.074219 165.511719 L 333.21875 165.503906 L 334.363281 165.472656 L 335.507812 165.421875 L 336.648438 165.351562 L 337.792969 165.261719 L 338.929688 165.152344 L 340.066406 165.023438 L 341.203125 164.875 L 342.335938 164.707031 L 343.464844 164.515625 L 344.589844 164.308594 L 345.710938 164.078125 L 346.828125 163.832031 L 347.941406 163.5625 L 349.050781 163.277344 L 350.152344 162.972656 L 351.25 162.648438 L 352.34375 162.300781 L 353.429688 161.9375 L 354.507812 161.558594 L 355.578125 161.15625 L 356.644531 160.738281 L 357.703125 160.296875 L 358.75 159.84375 L 359.792969 159.367188 L 360.828125 158.875 L 361.851562 158.363281 L 362.867188 157.835938 L 363.871094 157.289062 L 364.867188 156.726562 L 365.855469 156.144531 L 366.832031 155.546875 L 367.796875 154.929688 L 368.75 154.300781 L 369.695312 153.652344 L 370.625 152.988281 L 371.546875 152.304688 L 372.453125 151.609375 L 373.351562 150.894531 L 374.234375 150.167969 L 375.105469 149.425781 L 375.960938 148.667969 L 376.804688 147.894531 L 377.636719 147.105469 L 378.453125 146.300781 L 379.253906 145.484375 L 380.042969 144.65625 L 380.816406 143.8125 L 381.574219 142.953125 L 382.316406 142.085938 L 383.046875 141.199219 L 383.757812 140.304688 L 384.457031 139.398438 L 385.136719 138.476562 L 385.800781 137.542969 L 386.449219 136.601562 L 387.082031 135.648438 L 387.695312 134.679688 L 388.292969 133.707031 L 388.875 132.71875 L 389.4375 131.722656 L 389.984375 130.714844 L 390.511719 129.703125 L 391.023438 128.675781 L 391.515625 127.644531 L 391.992188 126.601562 L 392.449219 125.550781 L 392.886719 124.496094 L 393.304688 123.429688 L 393.707031 122.359375 L 394.089844 121.277344 L 394.453125 120.191406 L 394.796875 119.101562 L 395.121094 118.003906 L 395.425781 116.902344 L 395.714844 115.792969 L 395.980469 114.679688 L 396.230469 113.5625 L 396.457031 112.441406 L 396.664062 111.3125 L 396.855469 110.183594 L 397.023438 109.054688 L 397.171875 107.917969 L 397.304688 106.78125 L 397.414062 105.640625 L 397.503906 104.5 L 397.570312 103.359375 L 397.621094 102.214844 L 397.652344 101.070312 Z M 397.660156 99.925781 "/>
</svg>
